<svg width="215" height="70" viewBox="0 0 215 70" fill="none" xmlns="http://www.w3.org/2000/svg">
<path d="M10 0.5H205C210.247 0.500008 214.5 4.7533 214.5 10V58C214.5 64.3513 209.351 69.5 203 69.5H10C4.7533 69.5 0.500002 65.2467 0.5 60V10C0.5 4.7533 4.7533 0.5 10 0.5Z" fill="#009A74" stroke="#008E6A"/>
<path d="M82.525 49L81.8688 46.9H76.3563L75.7188 49H73.0938L77.2188 35.5H81.025L85.15 49H82.525ZM77.0875 44.5H81.1375L79.0938 37.9L77.0875 44.5ZM95.227 40.2062C96.0145 41.2 96.4082 42.5312 96.4082 43.9375C96.4082 45.325 96.0895 46.6187 95.227 47.6687C94.402 48.7 93.0707 49.2812 91.7395 49.2812C90.7645 49.2812 89.8645 49.0563 89.1332 48.6062V53.5H86.5645V38.875H88.8145V39.5125C89.5832 38.9312 90.577 38.5937 91.6082 38.5937C93.0145 38.5937 94.3645 39.1375 95.227 40.2062ZM93.202 46.1125C93.5582 45.5875 93.7082 44.8 93.7082 43.9375C93.7082 43.075 93.5207 42.2875 93.1645 41.7625C92.7332 41.1062 92.077 40.8625 91.2332 40.8625C90.5395 40.8625 89.9395 41.0875 89.527 41.575C89.0395 42.1375 88.8145 43.0187 88.8145 43.9375C88.8145 44.8562 89.0395 45.7562 89.527 46.3C89.977 46.7875 90.5957 47.0125 91.327 47.0125C92.0395 47.0125 92.7707 46.7687 93.202 46.1125ZM107.127 40.2062C107.915 41.2 108.309 42.5312 108.309 43.9375C108.309 45.325 107.99 46.6187 107.127 47.6687C106.302 48.7 104.971 49.2812 103.64 49.2812C102.665 49.2812 101.765 49.0563 101.034 48.6062V53.5H98.4648V38.875H100.715V39.5125C101.484 38.9312 102.477 38.5937 103.509 38.5937C104.915 38.5937 106.265 39.1375 107.127 40.2062ZM105.102 46.1125C105.459 45.5875 105.609 44.8 105.609 43.9375C105.609 43.075 105.421 42.2875 105.065 41.7625C104.634 41.1062 103.977 40.8625 103.134 40.8625C102.44 40.8625 101.84 41.0875 101.427 41.575C100.94 42.1375 100.715 43.0187 100.715 43.9375C100.715 44.8562 100.94 45.7562 101.427 46.3C101.877 46.7875 102.496 47.0125 103.227 47.0125C103.94 47.0125 104.671 46.7687 105.102 46.1125ZM124.328 38.9312L121.741 39.625C121.403 38.95 121.122 38.4812 120.484 38.1062C120.053 37.8437 119.509 37.6187 118.891 37.6187C118.253 37.6 117.653 37.75 117.259 37.9937C116.791 38.275 116.566 38.7062 116.566 39.1187C116.566 39.3625 116.659 39.5875 116.828 39.7562C117.072 40.0187 117.691 40.2625 118.366 40.4687L120.709 41.1437C121.909 41.5 122.603 41.8562 123.203 42.4187C124.009 43.1875 124.459 44.1812 124.459 45.2875C124.459 46.4688 123.784 47.7062 122.716 48.4187C121.684 49.1125 120.447 49.2812 119.022 49.2812C117.222 49.2812 115.684 48.8125 114.578 47.4625C113.922 46.6562 113.566 45.7187 113.359 44.8375L115.947 44.1437C116.059 44.8 116.284 45.4 116.622 45.8125C117.166 46.5625 118.216 46.9 119.116 46.9C119.828 46.9 120.728 46.6937 121.216 46.3187C121.647 46 121.759 45.5875 121.759 45.2125C121.759 44.8562 121.628 44.5187 121.347 44.275C121.047 44.0125 120.672 43.825 120.147 43.675L117.634 42.9437C116.622 42.6625 115.703 42.2687 115.047 41.6875C114.241 41.0125 113.884 40 113.884 39.0625C113.884 37.5812 114.841 36.3062 116.078 35.7437C117.053 35.2937 118.028 35.2187 118.928 35.2187C119.847 35.2375 120.859 35.3875 121.759 35.875C122.903 36.4937 123.803 37.5625 124.328 38.9312ZM132.776 40.8437H129.851V44.5187C129.851 45.3062 129.87 45.8875 130.095 46.2437C130.32 46.6 130.732 46.825 131.126 46.8625C131.614 46.9 132.232 46.8812 132.776 46.8062V49C131.97 49.225 130.564 49.2625 129.814 49.0563C128.895 48.7937 128.182 48.3437 127.789 47.5937C127.357 46.7875 127.301 45.8125 127.301 44.7062V40.8437H125.201V38.875H127.301V36.0625H129.851V38.875H132.776V40.8437ZM139.584 49.2812C138.084 49.2812 136.64 48.7 135.702 47.5937C134.84 46.5437 134.465 45.325 134.465 43.9375C134.465 42.5125 134.896 41.2562 135.702 40.2812C136.64 39.175 138.102 38.5937 139.584 38.5937C141.084 38.5937 142.527 39.1562 143.465 40.2812C144.365 41.35 144.721 42.5687 144.721 43.9375C144.721 45.3812 144.327 46.525 143.465 47.5937C142.509 48.7188 141.102 49.2812 139.584 49.2812ZM141.44 46.0375C141.871 45.475 142.021 44.7062 142.021 43.9375C142.021 43.1687 141.871 42.3812 141.44 41.8187C141.027 41.2562 140.334 40.975 139.584 40.975C138.834 40.975 138.14 41.2562 137.727 41.8187C137.296 42.3812 137.165 43.1687 137.165 43.9375C137.165 44.7062 137.296 45.475 137.727 46.0375C138.14 46.6 138.834 46.9 139.584 46.9C140.334 46.9 141.027 46.6 141.44 46.0375ZM151.887 38.6125C152.431 38.575 153.012 38.6687 153.575 38.8937V41.2562C153.05 41.05 152.356 40.9375 151.625 40.9937C150.893 41.05 150.368 41.3125 150.012 41.6875C149.562 42.175 149.356 42.85 149.356 43.6V49H146.787V38.875H149.037V40.2625C149.3 39.8125 149.656 39.4187 150.125 39.1375C150.668 38.8 151.287 38.65 151.887 38.6125ZM157.26 44.6312C157.335 45.1562 157.485 45.6437 157.785 46.0375C158.198 46.6 158.891 46.9 159.623 46.9C160.373 46.9 161.048 46.6 161.479 46.0375C161.554 45.925 161.591 45.8125 161.666 45.7187L164.198 46.825C164.029 47.1062 163.823 47.3875 163.598 47.65C162.585 48.775 161.123 49.3563 159.623 49.2812C158.123 49.2063 156.679 48.7188 155.741 47.5937C154.879 46.5437 154.466 45.2687 154.504 43.9375C154.541 42.5312 154.898 41.2937 155.741 40.2812C156.679 39.175 158.123 38.5937 159.623 38.5937C161.123 38.5937 162.566 39.1562 163.504 40.2812C164.348 41.2937 164.741 42.5875 164.741 43.9375C164.741 44.1625 164.723 44.4062 164.704 44.6312H157.26ZM159.623 40.975C158.891 40.975 158.198 41.2562 157.785 41.8375C157.598 42.0812 157.466 42.3625 157.373 42.6625H161.873C161.779 42.3625 161.648 42.0812 161.479 41.8375C161.048 41.2562 160.373 40.975 159.623 40.975Z" fill="white"/>
<path d="M80.5125 21.2875C80.875 21.9875 81.0125 22.75 81.025 23.4875C81.0125 24.2375 80.875 25.0125 80.5125 25.7C79.8 27.0875 78.3375 28 76.775 28H74V19H76.775C78.3375 19 79.8 19.9 80.5125 21.2875ZM79.6 25.225C79.8625 24.7 79.9875 24.1125 79.975 23.4875C79.975 22.8875 79.8625 22.2875 79.6 21.7625C79.05 20.675 77.9625 19.975 76.7125 19.975L75.025 19.9625V27.0125H76.7125C77.925 27.0125 79.05 26.325 79.6 25.225ZM85.2445 28.1875C84.2695 28.1875 83.3695 27.825 82.782 27.0875C82.2195 26.375 82.0195 25.5 82.0195 24.6125C82.0195 23.7375 82.232 22.85 82.782 22.1625C83.357 21.45 84.2695 21.0625 85.2445 21.0625C86.207 21.0625 87.1195 21.425 87.6945 22.1625C88.282 22.875 88.4695 23.75 88.4695 24.6125C88.4695 25.525 88.2695 26.3625 87.6945 27.0875C87.107 27.8375 86.232 28.1875 85.2445 28.1875ZM86.8945 26.4625C87.2695 25.9625 87.3945 25.2875 87.3945 24.6125C87.3945 23.9625 87.2695 23.275 86.8945 22.775C86.5195 22.275 85.8945 22.025 85.2445 22.025C84.5945 22.025 83.9695 22.275 83.607 22.775C83.2195 23.275 83.0945 23.9625 83.0945 24.6125C83.0945 25.2875 83.2195 25.9625 83.607 26.4625C83.9695 26.9625 84.5945 27.225 85.2445 27.225C85.8945 27.225 86.5195 26.9625 86.8945 26.4625ZM97.0609 21.25H98.0609L95.9984 28H94.9859L93.4859 22.9L91.9234 28H90.9609L88.8984 21.25H89.9234L91.4734 26.3375L93.0234 21.25H93.9359L95.4984 26.3375L97.0609 21.25ZM103.846 21.65C104.771 22.3625 104.934 23.4375 104.921 24.675V28H103.896V24.675C103.896 23.7125 103.796 22.9125 103.146 22.425C102.809 22.175 102.371 22.05 101.871 22.075C101.459 22.0875 101.059 22.225 100.759 22.4875C100.446 22.7625 100.246 23.1625 100.159 23.6125C100.096 23.8875 100.084 24.2125 100.084 24.5375V28H99.0586V21.25H99.9711V22.0125C100.034 21.9375 100.109 21.8625 100.184 21.7875C100.684 21.3375 101.346 21.1125 101.959 21.0875C102.621 21.05 103.309 21.25 103.846 21.65ZM106.43 28V18.8125H107.442V28H106.43ZM112.045 28.1875C111.07 28.1875 110.17 27.825 109.583 27.0875C109.02 26.375 108.82 25.5 108.82 24.6125C108.82 23.7375 109.033 22.85 109.583 22.1625C110.158 21.45 111.07 21.0625 112.045 21.0625C113.008 21.0625 113.92 21.425 114.495 22.1625C115.083 22.875 115.27 23.75 115.27 24.6125C115.27 25.525 115.07 26.3625 114.495 27.0875C113.908 27.8375 113.033 28.1875 112.045 28.1875ZM113.695 26.4625C114.07 25.9625 114.195 25.2875 114.195 24.6125C114.195 23.9625 114.07 23.275 113.695 22.775C113.32 22.275 112.695 22.025 112.045 22.025C111.395 22.025 110.77 22.275 110.408 22.775C110.02 23.275 109.895 23.9625 109.895 24.6125C109.895 25.2875 110.02 25.9625 110.408 26.4625C110.77 26.9625 111.395 27.225 112.045 27.225C112.695 27.225 113.32 26.9625 113.695 26.4625ZM117.498 22.95L116.561 22.5125C116.611 22.425 116.686 22.3 116.761 22.2125C117.348 21.425 118.223 21.075 119.236 21.075C120.473 21.075 121.486 21.525 121.973 22.575C122.161 22.9625 122.236 23.3875 122.236 23.775V28H121.336V26.6625C121.086 27.15 120.611 27.5625 120.148 27.7875C119.598 28.0625 119.011 28.2 118.411 28.1625C117.736 28.1375 117.036 27.7875 116.673 27.2625C116.411 26.8625 116.273 26.5 116.273 26.025C116.273 25.3125 116.648 24.6875 117.261 24.3125C117.998 23.9125 118.736 23.85 119.786 23.6875L121.186 23.5C121.123 23.075 120.936 22.7 120.611 22.45C120.248 22.15 119.736 22.0375 119.223 22.0375C118.598 22.0375 118.011 22.25 117.661 22.725C117.598 22.8 117.548 22.875 117.498 22.95ZM121.223 24.3625C120.723 24.4375 120.273 24.5125 119.586 24.625C118.498 24.7875 117.311 24.9875 117.298 25.975C117.286 26.6 117.836 27.1625 118.548 27.225C119.436 27.3125 120.561 26.8 120.961 25.9125C121.223 25.3625 121.223 24.925 121.223 24.3625ZM128.743 19H129.755V28H128.855V27.1375C128.33 27.825 127.505 28.1875 126.568 28.1875C125.643 28.1875 124.793 27.8125 124.23 27.1C123.668 26.3875 123.48 25.5 123.48 24.6125C123.48 23.7375 123.68 22.8375 124.23 22.15C124.768 21.45 125.63 21.0625 126.543 21.0625C127.393 21.0625 128.193 21.3875 128.743 21.975V19ZM128.305 26.525C128.705 26.0375 128.855 25.325 128.855 24.6125C128.855 23.9125 128.705 23.2 128.305 22.7125C127.943 22.225 127.343 22 126.705 22C126.03 22 125.43 22.2375 125.055 22.7625C124.693 23.25 124.555 23.925 124.555 24.6125C124.555 25.3125 124.68 25.9875 125.043 26.4625C125.418 26.9875 126.043 27.25 126.68 27.25C127.33 27.25 127.93 27 128.305 26.525ZM137.159 28.1875C136.184 28.1875 135.284 27.825 134.696 27.0875C134.134 26.375 133.934 25.5 133.934 24.6125C133.934 23.7375 134.146 22.85 134.696 22.1625C135.271 21.45 136.184 21.0625 137.159 21.0625C138.121 21.0625 139.034 21.425 139.609 22.1625C140.196 22.875 140.384 23.75 140.384 24.6125C140.384 25.525 140.184 26.3625 139.609 27.0875C139.021 27.8375 138.146 28.1875 137.159 28.1875ZM138.809 26.4625C139.184 25.9625 139.309 25.2875 139.309 24.6125C139.309 23.9625 139.184 23.275 138.809 22.775C138.434 22.275 137.809 22.025 137.159 22.025C136.509 22.025 135.884 22.275 135.521 22.775C135.134 23.275 135.009 23.9625 135.009 24.6125C135.009 25.2875 135.134 25.9625 135.521 26.4625C135.884 26.9625 136.509 27.225 137.159 27.225C137.809 27.225 138.434 26.9625 138.809 26.4625ZM146.549 21.65C147.474 22.3625 147.637 23.4375 147.624 24.675V28H146.599V24.675C146.599 23.7125 146.499 22.9125 145.849 22.425C145.512 22.175 145.074 22.05 144.574 22.075C144.162 22.0875 143.762 22.225 143.462 22.4875C143.149 22.7625 142.949 23.1625 142.862 23.6125C142.799 23.8875 142.787 24.2125 142.787 24.5375V28H141.762V21.25H142.674V22.0125C142.737 21.9375 142.812 21.8625 142.887 21.7875C143.387 21.3375 144.049 21.1125 144.662 21.0875C145.324 21.05 146.012 21.25 146.549 21.65Z" fill="white"/>
<path d="M51.1246 53.4C48.9789 55.504 46.6115 55.176 44.355 54.184C41.9559 53.172 39.7627 53.108 37.2291 54.184C34.0739 55.56 32.3993 55.16 30.4991 53.4C19.7706 42.24 21.3542 25.2401 33.5474 24.6001C36.5046 24.7601 38.5751 26.2521 40.317 26.3761C42.906 25.8441 45.3843 24.3201 48.1555 24.5201C51.4848 24.7921 53.9749 26.1201 55.6376 28.5081C48.7889 32.668 50.412 41.788 56.7026 44.348C55.4437 47.688 53.8285 50.988 51.1206 53.428L51.1246 53.4ZM40.0794 24.4801C39.7588 19.5201 43.7374 15.4401 48.3138 15.0401C48.9433 20.7601 43.1673 25.0401 40.0794 24.4801Z" fill="white"/>
</svg>
