<svg width="28" height="28" viewBox="0 0 28 28" fill="none" xmlns="http://www.w3.org/2000/svg">
<path d="M25.6317 21.385C25.6317 21.805 25.5384 22.2367 25.34 22.6567C25.1417 23.0767 24.885 23.4734 24.5467 23.8467C23.975 24.4767 23.345 24.9317 22.6334 25.2234C21.9334 25.515 21.175 25.6667 20.3584 25.6667C19.1684 25.6667 17.8967 25.3867 16.555 24.815C15.2134 24.2434 13.8717 23.4734 12.5417 22.505C11.2 21.525 9.92837 20.44 8.71504 19.2384C7.51337 18.025 6.42837 16.7534 5.46004 15.4234C4.50337 14.0934 3.73337 12.7634 3.17337 11.445C2.61337 10.115 2.33337 8.84337 2.33337 7.63004C2.33337 6.83671 2.47337 6.07837 2.75337 5.37837C3.03337 4.66671 3.47671 4.01337 4.09504 3.43004C4.84171 2.69504 5.65837 2.33337 6.52171 2.33337C6.84837 2.33337 7.17504 2.40337 7.46671 2.54337C7.77004 2.68337 8.03837 2.89337 8.24837 3.19671L10.955 7.01171C11.165 7.30337 11.3167 7.57171 11.4217 7.82837C11.5267 8.07337 11.585 8.31837 11.585 8.54004C11.585 8.82004 11.5034 9.10004 11.34 9.36837C11.1884 9.63671 10.9667 9.91671 10.6867 10.1967L9.80004 11.1184C9.67171 11.2467 9.61337 11.3984 9.61337 11.585C9.61337 11.6784 9.62504 11.76 9.64837 11.8534C9.68337 11.9467 9.71837 12.0167 9.74171 12.0867C9.95171 12.4717 10.3134 12.9734 10.8267 13.58C11.3517 14.1867 11.9117 14.805 12.5184 15.4234C13.1484 16.0417 13.755 16.6134 14.3734 17.1384C14.98 17.6517 15.4817 18.0017 15.8784 18.2117C15.9367 18.235 16.0067 18.27 16.0884 18.305C16.1817 18.34 16.275 18.3517 16.38 18.3517C16.5784 18.3517 16.73 18.2817 16.8584 18.1534L17.745 17.2784C18.0367 16.9867 18.3167 16.765 18.585 16.625C18.8534 16.4617 19.1217 16.38 19.4134 16.38C19.635 16.38 19.8684 16.4267 20.125 16.5317C20.3817 16.6367 20.65 16.7884 20.9417 16.9867L24.8034 19.7284C25.1067 19.9384 25.3167 20.1834 25.445 20.475C25.5617 20.7667 25.6317 21.0584 25.6317 21.385Z" stroke="#007F5F" stroke-width="1.5" stroke-miterlimit="10"/>
</svg>
