<svg width="432" height="411" viewBox="0 0 432 411" fill="none" xmlns="http://www.w3.org/2000/svg">
<path d="M419.344 144.12L50.4835 5.31187C43.2617 2.59422 35.389 7.30038 34.3635 14.9481L1.73153 258.289C0.723169 265.809 5.13433 273.003 12.2934 275.514L378.33 403.914C387.917 407.277 398.171 400.968 399.49 390.893L429.573 161.172C430.538 153.802 426.3 146.738 419.344 144.12Z" fill="#009A74"/>
<mask id="mask0_2166_782" style="mask-type:alpha" maskUnits="userSpaceOnUse" x="1" y="4" width="429" height="401">
<path d="M419.344 144.12L50.4835 5.31187C43.2617 2.59422 35.389 7.30038 34.3635 14.9481L1.73153 258.289C0.723169 265.809 5.13433 273.003 12.2934 275.514L378.33 403.914C387.917 407.277 398.171 400.968 399.49 390.893L429.573 161.172C430.538 153.802 426.3 146.738 419.344 144.12Z" fill="#009A74"/>
</mask>
<g mask="url(#mask0_2166_782)">
<path d="M261.849 229.64C217.792 158.151 231.716 94.5591 244.185 71.6992H261.849L438.494 100.794L455.119 323.158C409.053 321.773 305.906 301.129 261.849 229.64Z" fill="#008B69"/>
</g>
<g filter="url(#filter0_d_2166_782)">
<path d="M200.869 307.254C199.095 307.282 197.538 306.934 196.197 306.212C194.856 305.49 193.803 304.47 193.04 303.151C192.277 301.833 191.882 300.287 191.855 298.514L191.745 291.333C191.717 289.56 192.065 288.002 192.787 286.661C193.509 285.32 194.529 284.268 195.848 283.505C197.166 282.742 198.712 282.347 200.485 282.319C202.258 282.292 203.815 282.639 205.157 283.361C206.498 284.083 207.55 285.104 208.313 286.422C209.076 287.741 209.471 289.286 209.498 291.06L209.609 298.241C209.636 300.014 209.289 301.571 208.567 302.913C207.845 304.254 206.824 305.306 205.506 306.069C204.187 306.832 202.642 307.227 200.869 307.254ZM200.803 302.966C201.6 302.953 202.318 302.754 202.955 302.367C203.592 301.98 204.094 301.463 204.461 300.814C204.828 300.166 205.005 299.442 204.993 298.644L204.872 290.765C204.859 289.967 204.66 289.25 204.273 288.613C203.886 287.976 203.369 287.474 202.72 287.107C202.072 286.74 201.348 286.563 200.55 286.575C199.753 286.587 199.035 286.787 198.398 287.173C197.761 287.56 197.259 288.078 196.892 288.726C196.525 289.375 196.348 290.098 196.36 290.896L196.482 298.775C196.494 299.573 196.693 300.291 197.08 300.928C197.467 301.565 197.984 302.067 198.633 302.434C199.281 302.8 200.005 302.978 200.803 302.966Z" fill="white"/>
<path d="M171.306 299.144L171.805 295.252L182.899 287.691C183.731 287.127 184.338 286.574 184.721 286.03C185.103 285.487 185.327 284.963 185.392 284.457C185.485 283.731 185.419 283.069 185.194 282.471C184.97 281.861 184.61 281.362 184.112 280.974C183.615 280.575 183.004 280.329 182.279 280.236C181.52 280.139 180.827 280.229 180.199 280.506C179.584 280.774 179.08 281.173 178.688 281.703C178.297 282.223 178.071 282.814 178.008 283.477L173.391 282.885C173.6 281.258 174.137 279.896 175.004 278.801C175.871 277.705 176.984 276.915 178.342 276.429C179.7 275.944 181.226 275.81 182.919 276.027C184.469 276.226 185.811 276.745 186.944 277.583C188.089 278.411 188.936 279.475 189.484 280.775C190.033 282.074 190.205 283.521 190.001 285.115C189.85 286.291 189.559 287.249 189.129 287.987C188.701 288.714 188.12 289.366 187.387 289.942C186.655 290.508 185.764 291.142 184.712 291.846L177.558 296.661L177.322 295.625L188.47 297.054L187.928 301.276L171.306 299.144Z" fill="white"/>
<path d="M163.336 292.708C161.562 292.729 160.006 292.376 158.668 291.649C157.329 290.922 156.28 289.898 155.522 288.577C154.764 287.256 154.374 285.709 154.353 283.936L154.268 276.754C154.247 274.981 154.6 273.425 155.327 272.086C156.053 270.747 157.077 269.699 158.398 268.94C159.72 268.182 161.267 267.792 163.04 267.771C164.813 267.75 166.369 268.103 167.708 268.83C169.047 269.557 170.095 270.581 170.854 271.902C171.612 273.223 172.002 274.77 172.023 276.544L172.108 283.725C172.129 285.498 171.776 287.054 171.049 288.393C170.322 289.732 169.298 290.78 167.977 291.539C166.656 292.297 165.109 292.687 163.336 292.708ZM163.285 288.419C164.083 288.409 164.801 288.212 165.439 287.828C166.078 287.443 166.581 286.928 166.951 286.28C167.32 285.633 167.5 284.91 167.49 284.112L167.397 276.233C167.387 275.435 167.19 274.717 166.806 274.078C166.421 273.44 165.906 272.936 165.258 272.567C164.611 272.198 163.888 272.018 163.091 272.027C162.293 272.037 161.574 272.234 160.936 272.618C160.298 273.003 159.794 273.518 159.425 274.166C159.056 274.813 158.876 275.536 158.885 276.334L158.979 284.213C158.988 285.011 159.185 285.73 159.569 286.368C159.954 287.006 160.47 287.51 161.117 287.879C161.764 288.248 162.487 288.428 163.285 288.419Z" fill="white"/>
<path d="M146.123 291.203L146.628 289.357C147.15 289.468 147.59 289.435 147.948 289.258C148.304 289.091 148.569 288.812 148.742 288.421C148.925 288.042 149.011 287.584 149.002 287.046L146.694 286.75L147.269 282.265L151.754 282.84L151.179 287.326C150.976 288.909 150.454 290.06 149.613 290.779C148.772 291.498 147.609 291.639 146.123 291.203Z" fill="white"/>
<path d="M135.191 283.953C134.003 283.801 132.901 283.419 131.885 282.809C130.869 282.187 130.016 281.39 129.325 280.419C128.645 279.449 128.21 278.354 128.02 277.134L132.521 276.538C132.641 277.436 133.005 278.17 133.613 278.739C134.234 279.299 134.941 279.63 135.732 279.732C136.414 279.819 137.056 279.734 137.659 279.476C138.273 279.219 138.781 278.832 139.182 278.314C139.595 277.797 139.845 277.197 139.933 276.516C140.064 275.493 139.824 274.574 139.213 273.758C138.615 272.933 137.772 272.451 136.684 272.311C136.354 272.269 136.029 272.277 135.708 272.337C135.389 272.385 135.076 272.474 134.769 272.602L133.21 268.815L141.566 263.517L141.773 264.516L130.757 263.103L131.299 258.882L146.14 260.785L145.599 265.006L139.001 269.926L139.128 268.669C140.465 269.053 141.552 269.678 142.391 270.545C143.242 271.403 143.84 272.407 144.184 273.558C144.54 274.699 144.64 275.879 144.484 277.099C144.292 278.594 143.74 279.893 142.828 280.994C141.917 282.084 140.79 282.9 139.447 283.443C138.104 283.975 136.686 284.145 135.191 283.953Z" fill="white"/>
<path d="M108.571 276.146L109.07 272.255L120.164 264.693C120.996 264.129 121.603 263.576 121.986 263.033C122.368 262.489 122.592 261.965 122.657 261.459C122.75 260.734 122.684 260.071 122.459 259.473C122.235 258.863 121.875 258.364 121.377 257.976C120.881 257.577 120.27 257.331 119.544 257.238C118.786 257.141 118.092 257.231 117.465 257.508C116.849 257.776 116.345 258.175 115.953 258.706C115.563 259.225 115.336 259.816 115.273 260.479L110.656 259.887C110.865 258.26 111.402 256.898 112.269 255.803C113.136 254.707 114.249 253.917 115.607 253.432C116.966 252.946 118.491 252.812 120.184 253.03C121.734 253.228 123.076 253.747 124.209 254.585C125.354 255.413 126.201 256.477 126.75 257.777C127.298 259.076 127.47 260.523 127.266 262.117C127.115 263.294 126.825 264.251 126.395 264.989C125.966 265.716 125.385 266.368 124.652 266.945C123.92 267.51 123.029 268.144 121.978 268.848L114.823 273.663L114.587 272.627L125.735 274.056L125.193 278.278L108.571 276.146Z" fill="white"/>
<path d="M101.03 244.701C102.605 244.874 103.975 245.398 105.139 246.273C106.314 247.149 107.192 248.288 107.774 249.69C108.358 251.081 108.554 252.641 108.364 254.371L107.606 261.279C107.4 263.152 106.859 264.731 105.981 266.018C105.106 267.293 103.966 268.227 102.563 268.82C101.161 269.402 99.5676 269.595 97.7828 269.399C96.6259 269.272 95.543 268.98 94.5338 268.524C93.5369 268.058 92.6419 267.374 91.8488 266.473L95.4069 263.619C95.76 264.059 96.1833 264.418 96.6769 264.695C97.1816 264.973 97.7038 265.142 98.2437 265.202C99.103 265.296 99.8685 265.179 100.54 264.852C101.224 264.514 101.772 264.045 102.183 263.443C102.607 262.832 102.859 262.163 102.939 261.435L103.327 257.899L103.997 258.809C103.248 259.429 102.402 259.877 101.457 260.152C100.514 260.416 99.5632 260.496 98.6047 260.391C97.1063 260.226 95.8211 259.745 94.7491 258.947C93.6881 258.151 92.8967 257.133 92.3749 255.893C91.8641 254.655 91.691 253.287 91.8555 251.789C92.0201 250.29 92.5483 248.983 93.4404 247.865C94.3337 246.737 95.447 245.889 96.7804 245.322C98.115 244.743 99.5315 244.537 101.03 244.701ZM100.558 248.998C99.875 248.923 99.2289 249.019 98.6197 249.287C98.0215 249.556 97.5208 249.952 97.1176 250.477C96.7253 251.002 96.4917 251.607 96.4167 252.29C96.3417 252.973 96.438 253.619 96.7056 254.228C96.9745 254.826 97.3711 255.327 97.8954 255.73C98.421 256.122 99.0254 256.356 99.7085 256.431C100.392 256.506 101.032 256.409 101.63 256.14C102.241 255.862 102.742 255.46 103.134 254.934C103.539 254.399 103.778 253.789 103.853 253.106C103.926 252.445 103.828 251.816 103.559 251.217C103.29 250.619 102.894 250.119 102.369 249.715C101.845 249.312 101.241 249.073 100.558 248.998Z" fill="white"/>
<path d="M83.676 268.392L84.1473 266.538C84.6713 266.64 85.1106 266.599 85.4654 266.415C85.8189 266.242 86.0786 265.958 86.2445 265.564C86.4203 265.181 86.4987 264.722 86.4796 264.184L84.166 263.93L84.6595 259.435L89.1546 259.929L88.661 264.424C88.4868 266.01 87.9859 267.171 87.1582 267.905C86.3305 268.639 85.1698 268.802 83.676 268.392Z" fill="white"/>
<path d="M73.7041 261.181C72.0955 261.004 70.6989 260.522 69.5143 259.734C68.342 258.936 67.4606 257.925 66.8703 256.701C66.2922 255.466 66.0842 254.111 66.2463 252.635C66.3842 251.379 66.7952 250.225 67.4793 249.174C68.1744 248.124 69.095 247.306 70.2411 246.718L69.9895 248.095C69.2711 247.225 68.7284 246.329 68.3612 245.408C68.0051 244.488 67.8869 243.482 68.0066 242.392C68.1578 241.014 68.6147 239.849 69.3772 238.896C70.1508 237.944 71.1413 237.25 72.3488 236.814C73.5686 236.368 74.9276 236.227 76.426 236.392C77.9243 236.556 79.215 236.988 80.2979 237.687C81.393 238.375 82.2093 239.268 82.7468 240.364C83.2954 241.461 83.494 242.698 83.3428 244.075C83.223 245.166 82.9005 246.123 82.3753 246.946C81.8512 247.759 81.1038 248.524 80.1329 249.242L80.2853 247.854C81.2594 248.63 81.9656 249.611 82.4041 250.796C82.8536 251.983 83.0094 253.204 82.8715 254.46C82.7094 255.937 82.2068 257.214 81.3636 258.292C80.5217 259.359 79.4364 260.154 78.1079 260.678C76.7805 261.19 75.3126 261.357 73.7041 261.181ZM74.1686 256.95C75.2263 257.066 76.1171 256.874 76.841 256.374C77.565 255.874 77.9886 255.061 78.112 253.938C78.2342 252.825 77.9968 251.94 77.3999 251.284C76.8042 250.616 75.9775 250.224 74.9198 250.108C73.8622 249.992 72.9757 250.196 72.2603 250.719C71.5462 251.232 71.128 252.045 71.0058 253.157C70.8824 254.281 71.1143 255.165 71.7014 255.81C72.2885 256.454 73.1109 256.834 74.1686 256.95ZM75.388 245.845C76.2474 245.939 76.9699 245.806 77.5558 245.447C78.1428 245.077 78.4853 244.445 78.5833 243.553C78.6813 242.66 78.4839 241.97 77.9913 241.481C77.4998 240.981 76.8244 240.684 75.9651 240.589C75.1057 240.495 74.3819 240.639 73.7937 241.02C73.2066 241.39 72.8641 242.022 72.7661 242.914C72.6681 243.807 72.8655 244.497 73.3582 244.986C73.852 245.464 74.5287 245.75 75.388 245.845Z" fill="white"/>
<path d="M56.1528 252.993C54.9519 252.861 53.8498 252.49 52.8466 251.878C51.8544 251.267 51.0266 250.479 50.3631 249.514C49.6997 248.549 49.2669 247.465 49.0646 246.261L53.5214 245.579C53.603 246.157 53.8031 246.67 54.122 247.117C54.4518 247.566 54.8464 247.933 55.3057 248.217C55.7773 248.492 56.272 248.658 56.7898 248.715C57.4729 248.79 58.1135 248.693 58.7117 248.424C59.3209 248.156 59.8216 247.76 60.2138 247.234C60.6171 246.71 60.8562 246.106 60.9312 245.423C61.0062 244.74 60.9038 244.099 60.6239 243.499C60.3551 242.901 59.9524 242.405 59.4158 242.012C58.8902 241.62 58.2859 241.386 57.6028 241.311C56.7655 241.219 56.0667 241.287 55.5064 241.516C54.9473 241.733 54.5216 241.954 54.2294 242.178L50.5554 240.604L52.6726 228.025L65.662 229.451L65.2011 233.649L54.6906 232.495L56.4404 231.182L55.0482 239.291L54.3896 238.282C55.0378 237.863 55.754 237.585 56.5384 237.448C57.3228 237.311 58.0455 237.279 58.7066 237.351C60.205 237.516 61.4846 237.996 62.5456 238.793C63.6188 239.58 64.4108 240.592 64.9216 241.83C65.4446 243.059 65.6239 244.422 65.4593 245.92C65.2948 247.419 64.7549 248.731 63.8396 249.857C62.9255 250.972 61.7901 251.817 60.4335 252.393C59.078 252.958 57.6511 253.158 56.1528 252.993Z" fill="white"/>
<path d="M28.7505 245.494L29.6346 237.328L27.7173 237.121L27.9822 234.675L29.8995 234.882L30.1572 232.502L28.2399 232.294L28.5048 229.848L30.4221 230.056L31.3062 221.891L36.4962 222.453L38.1906 230.897L41.1988 231.223L42.083 223.058L45.7523 223.455L44.8682 231.62L46.7525 231.824L46.4876 234.27L44.6034 234.066L44.3456 236.446L46.2299 236.65L45.965 239.097L44.0808 238.893L43.1967 247.058L37.9736 246.492L36.2131 238.041L33.304 237.726L32.4199 245.891L28.7505 245.494ZM33.5689 235.28L35.7507 235.516L35.2811 233.057L33.7605 232.892L33.5689 235.28ZM40.1848 241.514L40.3501 241.532L40.5436 238.51L39.6511 238.413L40.1848 241.514ZM33.9592 230.439L34.8849 230.539L34.2698 227.262L34.1376 227.247L33.9592 230.439ZM39.2217 235.892L40.7424 236.056L40.934 233.669L38.7191 233.429L39.2217 235.892Z" fill="white"/>
</g>
<path d="M174.918 227.652C175.342 228.633 175.372 229.729 175.077 230.76C174.698 232.03 173.858 233.137 172.677 233.709C171.629 234.236 170.394 234.33 169.307 234.02C168.192 233.742 167.168 233.046 166.521 232.067C166.046 231.355 165.785 230.519 165.756 229.644L167.954 229.646C167.97 230.114 168.09 230.57 168.349 230.961C168.695 231.477 169.223 231.84 169.845 232.005C170.447 232.166 171.091 232.096 171.648 231.821C172.301 231.491 172.726 230.879 172.912 230.182C173.098 229.486 173.053 228.748 172.675 228.123C172.32 227.564 171.768 227.215 171.147 227.05C170.732 226.939 170.264 226.955 169.838 227.043L169.301 225.125L173.986 222.605L168.583 221.163L169.116 219.168L177.361 221.368L176.808 223.438L172.781 225.61C173.771 226.056 174.469 226.766 174.918 227.652Z" fill="white"/>
<path d="M180.374 236.972C179 236.605 177.761 235.731 177.139 234.435C176.521 233.121 176.543 232.058 176.924 230.628L177.984 226.656C178.361 225.244 178.853 224.306 180.071 223.442C181.204 222.675 182.715 222.453 184.135 222.872C185.501 223.196 186.734 224.09 187.375 225.39C188.003 226.667 187.966 227.786 187.585 229.217L186.525 233.189C186.158 234.563 185.646 235.576 184.461 236.389C183.282 237.183 181.823 237.359 180.374 236.972ZM183.603 224.868C182.68 224.622 181.679 224.899 181.021 225.55C180.566 225.973 180.34 226.518 180.149 227.233L179.089 231.205C178.918 231.845 178.785 232.495 179.006 233.179C179.3 234.044 180.021 234.741 180.906 234.977C181.81 235.218 182.782 234.973 183.473 234.351C183.976 233.9 184.154 233.383 184.36 232.611L185.42 228.639C185.606 227.943 185.712 227.467 185.534 226.774C185.274 225.858 184.525 225.114 183.603 224.868Z" fill="white"/>
<path d="M191.414 225.117L198.549 227.02L198.017 229.016L192.764 227.614L191.613 231.098C192.393 230.822 193.262 230.812 193.997 231.008C195.07 231.294 196.061 231.962 196.68 232.893C197.422 234.039 197.577 235.351 197.202 236.602C196.857 237.821 196.009 238.885 194.941 239.487C193.854 240.084 192.523 240.233 191.324 239.893C190.152 239.601 189.091 238.814 188.46 237.778C188.022 237.077 187.766 236.222 187.756 235.352L189.935 235.349C189.946 235.836 190.08 236.315 190.315 236.72C190.67 237.279 191.221 237.708 191.861 237.879C192.539 238.06 193.254 237.948 193.845 237.622C194.436 237.296 194.89 236.731 195.075 236.034C195.256 235.357 195.136 234.599 194.767 234.016C194.417 233.439 193.861 233.029 193.202 232.853C192.581 232.687 191.913 232.771 191.351 233.065C191.117 233.184 190.893 233.346 190.724 233.523L189.142 231.971L191.414 225.117Z" fill="white"/>
<path d="M154.235 219.651C154.127 221.439 152.59 222.801 150.802 222.693C149.013 222.584 147.652 221.047 147.76 219.259C147.869 217.471 149.406 216.109 151.194 216.218C152.982 216.326 154.344 217.863 154.235 219.651Z" fill="white"/>
<path d="M145.923 217.573C145.815 219.361 144.277 220.723 142.489 220.615C140.701 220.506 139.339 218.969 139.448 217.181C139.556 215.393 141.093 214.031 142.882 214.139C144.67 214.248 146.031 215.785 145.923 217.573Z" fill="white"/>
<path d="M137.61 213.417C137.502 215.205 135.964 216.567 134.176 216.458C132.388 216.35 131.026 214.812 131.135 213.024C131.243 211.236 132.781 209.875 134.569 209.983C136.357 210.091 137.718 211.629 137.61 213.417Z" fill="white"/>
<path d="M129.276 209.37C129.168 211.158 127.63 212.52 125.842 212.411C124.054 212.303 122.692 210.766 122.801 208.978C122.909 207.19 124.447 205.828 126.235 205.936C128.023 206.045 129.384 207.582 129.276 209.37Z" fill="white"/>
<path d="M110.594 203.026C110.485 204.814 108.948 206.176 107.16 206.067C105.372 205.959 104.01 204.422 104.119 202.634C104.227 200.845 105.764 199.484 107.552 199.592C109.34 199.701 110.702 201.238 110.594 203.026Z" fill="white"/>
<path d="M102.281 200.948C102.173 202.736 100.636 204.098 98.8475 203.989C97.0594 203.881 95.6978 202.343 95.8061 200.555C95.9145 198.767 97.4519 197.406 99.24 197.514C101.028 197.622 102.39 199.16 102.281 200.948Z" fill="white"/>
<path d="M93.9684 196.791C93.8601 198.58 92.3227 199.941 90.5346 199.833C88.7465 199.725 87.3848 198.187 87.4932 196.399C87.6016 194.611 89.139 193.249 90.927 193.358C92.7151 193.466 94.0768 195.003 93.9684 196.791Z" fill="white"/>
<path d="M85.6344 192.745C85.5261 194.533 83.9887 195.894 82.2006 195.786C80.4125 195.678 79.0508 194.14 79.1592 192.352C79.2676 190.564 80.805 189.203 82.593 189.311C84.3811 189.419 85.7428 190.957 85.6344 192.745Z" fill="white"/>
<path d="M66.9309 186.51C66.8225 188.298 65.2851 189.66 63.497 189.552C61.709 189.443 60.3473 187.906 60.4557 186.118C60.564 184.33 62.1014 182.968 63.8895 183.076C65.6776 183.185 67.0392 184.722 66.9309 186.51Z" fill="white"/>
<path d="M58.6182 184.432C58.5098 186.22 56.9724 187.582 55.1843 187.473C53.3963 187.365 52.0346 185.828 52.143 184.04C52.2513 182.252 53.7887 180.89 55.5768 180.998C57.3649 181.107 58.7266 182.644 58.6182 184.432Z" fill="white"/>
<path d="M50.3055 180.276C50.1971 182.064 48.6597 183.425 46.8717 183.317C45.0836 183.209 43.7219 181.671 43.8303 179.883C43.9387 178.095 45.476 176.733 47.2641 176.842C49.0522 176.95 50.4139 178.488 50.3055 180.276Z" fill="white"/>
<path d="M41.9715 176.229C41.8631 178.017 40.3257 179.379 38.5377 179.27C36.7496 179.162 35.3879 177.625 35.4963 175.836C35.6047 174.048 37.142 172.687 38.9301 172.795C40.7182 172.903 42.0799 174.441 41.9715 176.229Z" fill="white"/>
<path d="M349.976 155.795C351.332 156.009 352.599 156.612 353.618 157.526C354.636 158.44 355.361 159.624 355.699 160.929C356.037 162.235 355.974 163.602 355.518 164.859L354.665 164.549C355.061 163.457 355.116 162.268 354.822 161.133C354.528 159.999 353.898 158.969 353.013 158.174C352.127 157.38 351.025 156.856 349.847 156.67C348.668 156.483 347.466 156.642 346.392 157.126C345.318 157.611 344.42 158.399 343.812 159.391C343.204 160.382 342.913 161.534 342.977 162.699C343.04 163.864 343.455 164.991 344.168 165.936C344.881 166.882 345.861 167.604 346.984 168.012L346.682 168.842C345.391 168.374 344.264 167.543 343.443 166.455C342.623 165.367 342.146 164.071 342.073 162.731C342 161.39 342.334 160.066 343.034 158.925C343.733 157.784 344.766 156.877 346.001 156.32C347.237 155.763 348.62 155.58 349.976 155.795Z" fill="white"/>
<path d="M349.913 159.161C350.611 159.358 351.235 159.759 351.699 160.309C352.164 160.86 352.448 161.534 352.512 162.24C352.577 162.946 352.419 163.651 352.061 164.259C351.702 164.868 351.16 165.351 350.507 165.644C349.853 165.936 349.121 166.024 348.407 165.896C347.694 165.767 347.034 165.428 346.517 164.925C345.999 164.422 345.649 163.778 345.513 163.08C345.377 162.382 345.462 161.664 345.757 161.023L346.428 161.327C346.195 161.835 346.127 162.404 346.235 162.957C346.343 163.51 346.62 164.02 347.03 164.419C347.44 164.818 347.963 165.086 348.528 165.188C349.093 165.29 349.674 165.22 350.191 164.989C350.709 164.757 351.139 164.374 351.423 163.892C351.707 163.41 351.832 162.851 351.781 162.291C351.729 161.732 351.505 161.198 351.136 160.762C350.768 160.326 350.274 160.008 349.721 159.852L349.913 159.161Z" fill="white"/>
<path fill-rule="evenodd" clip-rule="evenodd" d="M350.619 158.341C352.925 159.243 354.121 161.774 353.294 164.051L353.253 164.159C352.373 166.401 349.809 167.528 347.468 166.678L347.357 166.636C345.088 165.749 343.894 163.283 344.645 161.035L344.683 160.926C345.522 158.612 348.131 157.436 350.509 158.299L350.619 158.341ZM350.268 158.964C348.267 158.238 346.072 159.227 345.366 161.174C344.659 163.121 345.708 165.287 347.709 166.013C349.71 166.739 351.904 165.75 352.611 163.803C353.317 161.857 352.268 159.69 350.268 158.964Z" fill="white"/>
<path fill-rule="evenodd" clip-rule="evenodd" d="M350.961 157.271C353.892 158.376 355.42 161.571 354.378 164.445L354.353 164.512C353.276 167.364 350.038 168.804 347.085 167.732L347.016 167.707C344.108 166.611 342.58 163.456 343.575 160.601L343.599 160.533C344.65 157.637 347.915 156.165 350.891 157.245L350.961 157.271ZM350.65 157.91C348.051 156.966 345.2 158.252 344.282 160.781C343.364 163.31 344.727 166.124 347.326 167.068C349.926 168.011 352.777 166.726 353.694 164.197C354.612 161.668 353.249 158.853 350.65 157.91Z" fill="white"/>
<path d="M335.278 150.741C336.278 150.755 337.27 150.981 338.184 151.406C339.242 151.898 340.162 152.643 340.857 153.569C341.552 154.496 342.001 155.575 342.161 156.707C342.321 157.839 342.188 158.987 341.773 160.046C341.359 161.104 340.677 162.038 339.79 162.762C338.903 163.486 337.84 163.975 336.7 164.186C335.559 164.396 334.378 164.321 333.265 163.966C332.413 163.695 331.622 163.267 330.934 162.708L331.28 161.756C331.93 162.349 332.704 162.797 333.549 163.066C334.507 163.371 335.523 163.436 336.504 163.255C337.486 163.074 338.4 162.653 339.163 162.03C339.926 161.408 340.513 160.604 340.869 159.693C341.226 158.783 341.341 157.795 341.203 156.821C341.065 155.847 340.679 154.918 340.081 154.121C339.483 153.324 338.692 152.684 337.781 152.26C336.889 151.845 335.91 151.65 334.932 151.693L335.278 150.741Z" fill="white"/>
<path d="M337.1 152.241C338.071 152.572 338.938 153.152 339.611 153.919C340.283 154.686 340.736 155.612 340.922 156.601C341.108 157.589 341.02 158.604 340.668 159.539C340.316 160.474 339.712 161.294 338.92 161.915C338.128 162.536 337.176 162.934 336.165 163.068C335.153 163.202 334.118 163.066 333.169 162.676C332.498 162.401 331.888 162.005 331.368 161.513L331.705 160.584C332.198 161.137 332.815 161.574 333.507 161.858C334.306 162.187 335.176 162.301 336.028 162.188C336.879 162.075 337.68 161.74 338.346 161.218C339.013 160.696 339.521 160.005 339.817 159.219C340.113 158.432 340.187 157.579 340.03 156.747C339.874 155.915 339.493 155.136 338.927 154.491C338.361 153.845 337.632 153.358 336.814 153.078C336.07 152.824 335.278 152.751 334.507 152.864L334.844 151.936C335.604 151.889 336.371 151.992 337.1 152.241Z" fill="white"/>
<path d="M336.08 153.129C336.959 153.293 337.774 153.705 338.425 154.313C339.075 154.922 339.533 155.7 339.742 156.553C339.95 157.406 339.9 158.295 339.597 159.111C339.295 159.928 338.753 160.635 338.039 161.146C337.326 161.658 336.471 161.95 335.581 161.988C334.69 162.027 333.804 161.808 333.03 161.36C332.559 161.088 332.143 160.738 331.798 160.328L332.14 159.386C332.464 159.904 332.914 160.338 333.451 160.649C334.081 161.014 334.804 161.192 335.529 161.161C336.254 161.13 336.951 160.891 337.532 160.475C338.114 160.058 338.555 159.482 338.801 158.817C339.048 158.152 339.089 157.427 338.919 156.732C338.749 156.038 338.376 155.403 337.846 154.908C337.316 154.412 336.652 154.077 335.936 153.943C335.31 153.826 334.668 153.868 334.072 154.062L334.414 153.121C334.961 153.024 335.525 153.026 336.08 153.129Z" fill="white"/>
<path d="M338.038 155.373C338.365 155.769 338.601 156.229 338.729 156.721C338.857 157.213 338.874 157.724 338.779 158.219C338.684 158.714 338.48 159.18 338.179 159.586C337.879 159.992 337.491 160.327 337.042 160.568C336.592 160.808 336.093 160.949 335.578 160.98C335.064 161.01 334.547 160.93 334.064 160.745C333.58 160.56 333.142 160.274 332.78 159.908C332.56 159.686 332.372 159.437 332.219 159.168L332.477 158.456L332.741 158.369C332.874 158.737 333.087 159.073 333.365 159.354C333.643 159.636 333.98 159.855 334.351 159.997C334.722 160.139 335.119 160.201 335.514 160.177C335.909 160.154 336.293 160.046 336.638 159.861C336.983 159.676 337.281 159.419 337.512 159.107C337.742 158.795 337.899 158.437 337.972 158.057C338.045 157.677 338.032 157.284 337.934 156.907C337.836 156.529 337.655 156.176 337.403 155.871L338.038 155.373Z" fill="white"/>
<path d="M336.305 145.42L337.104 145.71L330.8 163.078L330.002 162.788L336.305 145.42Z" fill="white"/>
<path d="M335.279 145.047L336.077 145.337L329.773 162.705L328.975 162.416L335.279 145.047Z" fill="white"/>
<path d="M334.252 144.675L335.05 144.965L328.747 162.333L327.948 162.043L334.252 144.675Z" fill="white"/>
<path d="M333.225 144.302L334.024 144.592L327.72 161.96L326.922 161.67L333.225 144.302Z" fill="white"/>
<path d="M322.887 145.963C324.243 146.178 325.51 146.78 326.529 147.694C327.547 148.608 328.272 149.793 328.61 151.098C328.948 152.403 328.886 153.771 328.429 155.027L327.576 154.717C327.973 153.625 328.027 152.436 327.733 151.302C327.439 150.167 326.809 149.137 325.924 148.343C325.038 147.548 323.937 147.025 322.758 146.838C321.58 146.652 320.377 146.811 319.303 147.295C318.229 147.779 317.331 148.567 316.723 149.559C316.115 150.551 315.824 151.702 315.888 152.867C315.951 154.033 316.366 155.159 317.079 156.105C317.792 157.051 318.772 157.773 319.895 158.18L319.594 159.011C318.302 158.542 317.175 157.711 316.354 156.623C315.534 155.535 315.057 154.239 314.984 152.899C314.911 151.559 315.246 150.234 315.945 149.093C316.644 147.952 317.677 147.046 318.913 146.489C320.148 145.932 321.531 145.749 322.887 145.963Z" fill="white"/>
<path d="M322.824 149.33C323.522 149.527 324.146 149.927 324.61 150.478C325.075 151.028 325.359 151.702 325.423 152.408C325.488 153.114 325.331 153.819 324.972 154.428C324.613 155.037 324.071 155.52 323.418 155.812C322.764 156.105 322.032 156.193 321.319 156.064C320.605 155.936 319.945 155.597 319.428 155.094C318.911 154.59 318.56 153.946 318.424 153.248C318.288 152.551 318.373 151.833 318.668 151.191L319.339 151.496C319.106 152.004 319.038 152.573 319.146 153.126C319.254 153.678 319.531 154.189 319.941 154.588C320.351 154.987 320.874 155.255 321.439 155.357C322.004 155.459 322.585 155.389 323.102 155.157C323.62 154.925 324.05 154.542 324.334 154.06C324.618 153.578 324.743 153.02 324.692 152.46C324.64 151.9 324.416 151.366 324.047 150.93C323.679 150.494 323.185 150.177 322.632 150.021L322.824 149.33Z" fill="white"/>
<path fill-rule="evenodd" clip-rule="evenodd" d="M323.531 148.509C325.836 149.411 327.032 151.942 326.205 154.22L326.165 154.327C325.284 156.57 322.72 157.696 320.379 156.847L320.268 156.805C317.999 155.917 316.805 153.452 317.556 151.203L317.594 151.094C318.433 148.781 321.042 147.605 323.42 148.468L323.531 148.509ZM323.179 149.132C321.178 148.406 318.983 149.396 318.277 151.342C317.57 153.289 318.62 155.456 320.62 156.182C322.621 156.908 324.815 155.919 325.522 153.972C326.228 152.025 325.179 149.859 323.179 149.132Z" fill="white"/>
<path fill-rule="evenodd" clip-rule="evenodd" d="M323.872 147.439C326.803 148.544 328.332 151.74 327.289 154.613L327.264 154.681C326.187 157.532 322.95 158.973 319.996 157.901L319.927 157.875C317.019 156.779 315.491 153.625 316.486 150.769L316.51 150.701C317.561 147.805 320.826 146.333 323.803 147.413L323.872 147.439ZM323.561 148.078C320.962 147.135 318.111 148.42 317.193 150.949C316.275 153.478 317.638 156.293 320.238 157.236C322.837 158.179 325.688 156.894 326.606 154.365C327.523 151.836 326.161 149.021 323.561 148.078Z" fill="white"/>
<path d="M312.009 146.21L310.868 145.796L314.147 157.034L315.402 157.489L312.009 146.21Z" fill="white"/>
<path d="M320.565 139.707L319.424 139.293L309.556 145.32L312.892 156.579L313.976 156.972L310.469 145.651L320.565 139.707Z" fill="white"/>
<path d="M318.226 138.859L308.13 144.803L311.524 156.082L312.721 156.517L308.986 145.113L319.082 139.169L318.226 138.859Z" fill="white"/>
<path d="M317.713 138.672L316.63 138.279L307.346 143.764L306.903 144.985L310.041 155.544L311.296 155.999L307.731 144.658L307.792 144.491L317.713 138.672Z" fill="white"/>
<path d="M309.786 135.795L310.584 136.085L304.281 153.453L303.482 153.163L309.786 135.795Z" fill="white"/>
<path d="M308.759 135.423L309.558 135.712L303.254 153.081L302.456 152.791L308.759 135.423Z" fill="white"/>
<path d="M307.733 135.05L308.531 135.34L302.228 152.708L301.429 152.418L307.733 135.05Z" fill="white"/>
<path d="M306.706 134.678L307.505 134.967L301.201 152.336L300.403 152.046L306.706 134.678Z" fill="white"/>
<path d="M289.184 144.953C289.895 142.994 292.102 141.999 294.115 142.73C296.127 143.46 297.183 145.639 296.472 147.598C295.761 149.556 293.554 150.551 291.541 149.82C289.529 149.09 288.474 146.911 289.184 144.953Z" fill="white"/>
<path d="M281.693 139.749C281.964 139.003 282.804 138.624 283.57 138.902L288.084 140.541C288.85 140.819 289.251 141.648 288.981 142.394L287.387 146.785C287.116 147.531 286.276 147.91 285.51 147.632L280.996 145.993C280.23 145.715 279.829 144.886 280.099 144.14L281.693 139.749Z" fill="white"/>
<path d="M294.19 131.159C294.551 130.165 295.671 129.66 296.693 130.031L302.354 132.085C303.375 132.456 303.911 133.562 303.55 134.556L301.551 140.064C301.19 141.058 300.07 141.563 299.049 141.192L293.387 139.138C292.366 138.767 291.831 137.661 292.191 136.667L294.19 131.159Z" fill="white"/>
<path d="M282.831 130.153C283.744 127.638 286.579 126.36 289.163 127.298C291.748 128.236 293.103 131.035 292.191 133.55C291.278 136.065 288.443 137.343 285.858 136.405C283.273 135.467 281.918 132.668 282.831 130.153Z" fill="white"/>
<path d="M103.363 48.8028L62.7459 32.1867C61.5081 31.6803 60.1316 32.508 59.9985 33.8388L56.4107 69.7175C56.2322 71.5019 57.2632 73.187 58.9332 73.8405L100.026 89.9201C101.934 90.6669 104.013 89.3229 104.115 87.2762L105.844 52.7048C105.928 51.0096 104.934 49.4455 103.363 48.8028Z" fill="#FACE02"/>
<path d="M91.4382 70.6584L95.5945 61.2676" stroke="#FFFC55"/>
<path d="M103.907 76.8909L87.8023 68.8386C85.402 67.6385 82.5077 68.9697 81.8568 71.5732V71.5732C81.3828 73.4692 82.2809 75.4413 84.0223 76.3284L89.3596 79.0472" stroke="#FFFC55"/>
<path d="M104.907 66.5023L87.6679 57.411C86.2464 56.6614 85.5764 54.993 86.0846 53.4685V53.4685C86.7165 51.5729 88.8807 50.6764 90.6679 51.57L91.4381 51.9551" stroke="#FFFC55"/>
<path d="M66.4999 49.877V62.346" stroke="#FFF753"/>
<path d="M58.1873 56.1094L73.1517 66.0856C75.2878 67.5097 76.0292 70.3016 74.8811 72.5979V72.5979C73.6757 75.0087 70.8 76.0621 68.3226 75.0003L58.1873 70.6566" stroke="#FFF54A"/>
<path d="M58.1873 47.7991L73.2677 52.8259C75.2687 53.4929 77.4315 52.4115 78.0985 50.4105V50.4105C78.6183 48.851 78.0819 47.1338 76.7669 46.1475L62.3436 35.3301" stroke="#FFF345"/>
<path d="M103.363 48.8028L62.7459 32.1867C61.5081 31.6803 60.1316 32.508 59.9985 33.8388L56.4107 69.7175C56.2322 71.5019 57.2632 73.187 58.9332 73.8405L100.026 89.9201C101.934 90.6669 104.013 89.3229 104.115 87.2762L105.844 52.7048C105.928 51.0096 104.934 49.4455 103.363 48.8028Z" stroke="#728873"/>
<defs>
<filter id="filter0_d_2166_782" x="17.7173" y="215.891" width="201.893" height="105.365" filterUnits="userSpaceOnUse" color-interpolation-filters="sRGB">
<feFlood flood-opacity="0" result="BackgroundImageFix"/>
<feColorMatrix in="SourceAlpha" type="matrix" values="0 0 0 0 0 0 0 0 0 0 0 0 0 0 0 0 0 0 127 0" result="hardAlpha"/>
<feOffset dy="4"/>
<feGaussianBlur stdDeviation="5"/>
<feComposite in2="hardAlpha" operator="out"/>
<feColorMatrix type="matrix" values="0 0 0 0 0 0 0 0 0 0 0 0 0 0 0 0 0 0 0.1 0"/>
<feBlend mode="normal" in2="BackgroundImageFix" result="effect1_dropShadow_2166_782"/>
<feBlend mode="normal" in="SourceGraphic" in2="effect1_dropShadow_2166_782" result="shape"/>
</filter>
</defs>
</svg>
