<svg width="1558" height="275" viewBox="0 0 1558 275" fill="none" xmlns="http://www.w3.org/2000/svg">
<g opacity="0.5">
<path d="M1396.65 120.639C1422.84 115.429 1449.99 118.103 1474.66 128.322C1499.33 138.54 1520.41 155.843 1535.25 178.044C1550.08 200.246 1558 226.348 1558 253.05H1540.36C1540.36 229.838 1533.47 207.147 1520.58 187.847C1507.68 168.547 1489.35 153.504 1467.91 144.621C1446.46 135.738 1422.86 133.414 1400.1 137.942C1377.33 142.471 1356.42 153.649 1340.01 170.063C1323.59 186.476 1312.41 207.387 1307.89 230.153C1303.36 252.92 1305.68 276.518 1314.56 297.964C1323.45 319.409 1338.49 337.738 1357.79 350.634C1377.09 363.53 1399.78 370.413 1422.99 370.413V388.057C1396.29 388.057 1370.19 380.137 1347.99 365.303C1325.79 350.468 1308.48 329.384 1298.26 304.715C1288.05 280.046 1285.37 252.9 1290.58 226.712C1295.79 200.523 1308.65 176.467 1327.53 157.586C1346.41 138.705 1370.47 125.848 1396.65 120.639Z" fill="white"/>
<path d="M1417.83 184.267C1431.89 183.212 1445.93 186.488 1458.07 193.656C1470.21 200.825 1479.86 211.542 1485.72 224.362C1491.58 237.182 1493.38 251.49 1490.86 265.361C1488.35 279.232 1481.64 291.999 1471.65 301.943C1461.65 311.887 1448.85 318.532 1434.97 320.98C1421.09 323.428 1406.79 321.561 1394 315.635C1381.21 309.709 1370.54 300.006 1363.43 287.832C1356.32 275.659 1353.11 261.599 1354.24 247.547L1368.51 248.689C1367.62 259.823 1370.16 270.964 1375.8 280.609C1381.43 290.255 1389.88 297.944 1400.02 302.64C1410.15 307.335 1421.48 308.814 1432.48 306.874C1443.48 304.934 1453.63 299.67 1461.54 291.791C1469.46 283.912 1474.77 273.795 1476.77 262.804C1478.76 251.814 1477.34 240.477 1472.7 230.319C1468.05 220.161 1460.4 211.67 1450.78 205.99C1441.17 200.31 1430.04 197.714 1418.9 198.55L1417.83 184.267Z" fill="white"/>
<path fill-rule="evenodd" clip-rule="evenodd" d="M1425.29 164.058C1473.39 165.276 1512.01 204.653 1512.01 253.05L1511.99 255.347C1510.77 303.45 1471.39 342.07 1422.99 342.07L1420.69 342.043C1373.35 340.843 1335.2 302.686 1334 255.347L1333.97 253.05C1333.97 203.885 1373.83 164.028 1422.99 164.028L1425.29 164.058ZM1422.99 178.152C1381.63 178.153 1348.1 211.686 1348.1 253.05C1348.1 294.414 1381.63 327.945 1422.99 327.946C1464.36 327.945 1497.89 294.414 1497.89 253.05C1497.89 211.686 1464.36 178.153 1422.99 178.152Z" fill="white"/>
<path fill-rule="evenodd" clip-rule="evenodd" d="M1424.43 141.634C1485.31 142.405 1534.42 191.993 1534.42 253.05L1534.41 254.489C1533.64 315.364 1484.05 364.473 1422.99 364.473L1421.55 364.466C1361.16 363.7 1312.34 314.884 1311.58 254.489L1311.57 253.05C1311.57 191.513 1361.46 141.626 1422.99 141.625L1424.43 141.634ZM1422.99 155.75C1369.26 155.75 1325.69 199.313 1325.69 253.05C1325.69 306.787 1369.26 350.348 1422.99 350.348C1476.73 350.348 1520.29 306.787 1520.29 253.05C1520.29 199.313 1476.73 155.75 1422.99 155.75Z" fill="white"/>
<path d="M1094.63 125.909C1113 119.348 1132.62 116.832 1152.12 118.588C1174.73 120.623 1196.47 128.327 1215.31 140.987C1234.15 153.647 1249.5 170.856 1259.93 191.02C1270.36 211.184 1275.54 233.653 1274.99 256.348C1274.43 279.043 1268.16 301.233 1256.76 320.863C1245.36 340.493 1229.19 356.932 1209.75 368.657C1190.31 380.382 1168.22 387.015 1145.54 387.944C1128.18 388.654 1110.9 386 1094.63 380.19V359.961C1110.43 366.672 1127.56 369.809 1144.77 369.105C1164.28 368.306 1183.28 362.6 1200.01 352.512C1216.73 342.425 1230.65 328.282 1240.46 311.394C1250.27 294.505 1255.66 275.413 1256.14 255.888C1256.61 236.362 1252.16 217.03 1243.19 199.683C1234.21 182.335 1221.01 167.53 1204.8 156.638C1188.58 145.745 1169.89 139.118 1150.43 137.367C1131.39 135.653 1112.22 138.67 1094.63 146.14V125.909Z" fill="white"/>
<path d="M1137.86 141.647C1157.8 141.259 1177.49 146.236 1194.86 156.055C1212.23 165.874 1226.64 180.177 1236.59 197.469C1246.55 214.762 1251.67 234.41 1251.44 254.361C1251.2 274.311 1245.62 293.833 1235.26 310.887C1224.9 327.941 1210.16 341.901 1192.56 351.309C1174.97 360.717 1155.17 365.229 1135.24 364.372C1121.16 363.767 1107.39 360.499 1094.63 354.804V335.07C1107.3 342.086 1121.46 346.086 1136 346.711C1152.77 347.432 1169.42 343.636 1184.23 335.72C1199.03 327.805 1211.44 316.059 1220.15 301.711C1228.86 287.363 1233.56 270.938 1233.76 254.152C1233.96 237.367 1229.65 220.836 1221.27 206.287C1212.9 191.738 1200.77 179.704 1186.16 171.442C1171.55 163.18 1154.98 158.994 1138.2 159.321C1122.92 159.618 1107.96 163.646 1094.63 171.026V151.291C1108.2 145.236 1122.9 141.938 1137.86 141.647Z" fill="white"/>
<path d="M1125.12 165.285C1142.26 162.374 1159.88 164.547 1175.8 171.536C1191.72 178.525 1205.25 190.024 1214.71 204.613C1224.17 219.202 1229.15 236.243 1229.04 253.631C1228.93 271.018 1223.72 287.993 1214.07 302.457C1204.42 316.921 1190.75 328.243 1174.74 335.024C1158.72 341.805 1141.08 343.748 1123.97 340.614C1113.57 338.707 1103.64 334.965 1094.63 329.622V309.608C1103.98 317.118 1115.08 322.213 1126.95 324.388C1140.88 326.941 1155.26 325.358 1168.3 319.834C1181.35 314.31 1192.49 305.086 1200.35 293.302C1208.21 281.518 1212.45 267.689 1212.54 253.524C1212.64 239.358 1208.58 225.474 1200.87 213.589C1193.16 201.703 1182.14 192.335 1169.17 186.641C1156.2 180.947 1141.84 179.177 1127.88 181.548C1115.67 183.621 1104.23 188.776 1094.63 196.487V176.475C1103.97 170.935 1114.3 167.122 1125.12 165.285Z" fill="white"/>
<path d="M1175.77 194.063C1184.38 199.278 1191.73 206.31 1197.33 214.668C1202.93 223.026 1206.63 232.507 1208.18 242.447C1209.72 252.386 1209.08 262.545 1206.28 272.208C1203.49 281.872 1198.62 290.808 1192 298.389C1185.39 305.97 1177.2 312.012 1168.01 316.094C1158.81 320.175 1148.84 322.197 1138.78 322.016C1128.72 321.835 1118.83 319.457 1109.78 315.047C1104.29 312.369 1099.2 308.979 1094.63 304.981V289.853L1098.87 286.412C1103.74 292.413 1109.86 297.278 1116.8 300.664C1123.74 304.051 1131.34 305.877 1139.07 306.016C1146.79 306.155 1154.45 304.603 1161.52 301.468C1168.58 298.333 1174.87 293.693 1179.94 287.87C1185.02 282.048 1188.77 275.185 1190.91 267.764C1193.06 260.342 1193.55 252.541 1192.37 244.907C1191.18 237.274 1188.34 229.992 1184.04 223.573C1179.74 217.154 1174.09 211.753 1167.48 207.749L1175.77 194.063Z" fill="white"/>
<path d="M1078.12 19H1094.63V388.056H1078.12V19Z" fill="white"/>
<path d="M1056.89 19H1073.4V388.056H1056.89V19Z" fill="white"/>
<path d="M1035.67 19H1052.18V388.056H1035.67V19Z" fill="white"/>
<path d="M1014.45 19H1030.95V388.056H1014.45V19Z" fill="white"/>
<path d="M836.596 120.639C862.784 115.429 889.93 118.103 914.599 128.322C939.268 138.54 960.352 155.843 975.187 178.044C990.021 200.246 997.941 226.348 997.941 253.05H980.297C980.297 229.838 973.414 207.147 960.517 187.847C947.622 168.547 929.293 153.504 907.848 144.621C886.402 135.738 862.803 133.414 840.037 137.942C817.271 142.471 796.36 153.649 779.946 170.063C763.533 186.476 752.355 207.387 747.826 230.153C743.298 252.92 745.622 276.518 754.505 297.964C763.388 319.409 778.431 337.738 797.731 350.634C817.031 363.53 839.722 370.413 862.934 370.413V388.057C836.232 388.057 810.13 380.137 787.928 365.303C765.727 350.468 748.424 329.384 738.206 304.715C727.987 280.046 725.313 252.9 730.523 226.712C735.732 200.523 748.589 176.467 767.47 157.586C786.351 138.705 810.407 125.848 836.596 120.639Z" fill="white"/>
<path d="M857.769 184.267C871.826 183.212 885.87 186.488 898.008 193.656C910.147 200.825 919.798 211.542 925.662 224.362C931.525 237.182 933.32 251.49 930.804 265.361C928.288 279.232 921.581 291.999 911.588 301.943C901.595 311.887 888.795 318.532 874.911 320.98C861.028 323.428 846.729 321.561 833.938 315.635C821.147 309.709 810.479 300.006 803.37 287.832C796.261 275.659 793.052 261.599 794.177 247.547L808.455 248.689C807.564 259.823 810.105 270.964 815.738 280.609C821.37 290.255 829.824 297.944 839.959 302.64C850.094 307.335 861.424 308.814 872.424 306.874C883.424 304.934 893.566 299.67 901.484 291.791C909.402 283.912 914.716 273.795 916.71 262.804C918.703 251.814 917.282 240.477 912.636 230.319C907.99 220.161 900.344 211.67 890.725 205.99C881.107 200.31 869.978 197.714 858.84 198.55L857.769 184.267Z" fill="white"/>
<path fill-rule="evenodd" clip-rule="evenodd" d="M865.231 164.058C913.334 165.276 951.954 204.653 951.954 253.05L951.927 255.347C950.708 303.45 911.331 342.07 862.934 342.07L860.635 342.043C813.296 340.843 775.141 302.686 773.942 255.347L773.912 253.05C773.912 203.885 813.769 164.028 862.934 164.028L865.231 164.058ZM862.934 178.152C821.57 178.153 788.037 211.686 788.036 253.05C788.037 294.414 821.57 327.945 862.934 327.946C904.298 327.945 937.829 294.414 937.83 253.05C937.829 211.686 904.298 178.153 862.934 178.152Z" fill="white"/>
<path fill-rule="evenodd" clip-rule="evenodd" d="M864.373 141.634C925.248 142.405 974.357 191.993 974.357 253.05L974.35 254.489C973.579 315.364 923.991 364.473 862.934 364.473L861.493 364.466C801.098 363.7 752.283 314.884 751.518 254.489L751.509 253.05C751.51 191.513 801.397 141.626 862.934 141.625L864.373 141.634ZM862.934 155.75C809.197 155.75 765.634 199.313 765.634 253.05C765.634 306.787 809.197 350.348 862.934 350.348C916.671 350.348 960.232 306.787 960.232 253.05C960.232 199.313 916.671 155.75 862.934 155.75Z" fill="white"/>
<path d="M639.496 199.401H615.914L750.331 388.056H776.271L639.496 199.401Z" fill="white"/>
<path d="M752.689 19H729.107L588.795 199.401L724.391 388.056H746.793L607.66 199.401L752.689 19Z" fill="white"/>
<path d="M704.346 19L559.317 199.401L696.092 388.056H720.853L577.004 199.401L722.032 19H704.346Z" fill="white"/>
<path d="M693.734 19H671.331L538.094 185.252V211.192L665.436 388.056H691.376L551.064 199.401V195.864L693.734 19Z" fill="white"/>
<path d="M529.84 19H546.347V388.056H529.84V19Z" fill="white"/>
<path d="M508.616 19H525.124V388.056H508.616V19Z" fill="white"/>
<path d="M487.393 19H503.9V388.056H487.393V19Z" fill="white"/>
<path d="M466.169 19H482.676V388.056H466.169V19Z" fill="white"/>
<rect x="214.193" y="256" width="150.673" height="150.673" rx="75.3367" fill="#009A74"/>
<rect x="42.8384" y="256" width="150.673" height="150.673" rx="20" fill="#009A74"/>
<rect x="214.193" width="193.512" height="193.512" rx="20" fill="#009A74"/>
<rect width="193.512" height="193.512" rx="96.756" fill="#009A74"/>
</g>
</svg>
