<svg width="86" height="29" viewBox="0 0 86 29" fill="none" xmlns="http://www.w3.org/2000/svg">
<path d="M73.1163 7.98663C75.1741 7.57729 77.3072 7.7874 79.2457 8.59034C81.1841 9.39327 82.8409 10.753 84.0066 12.4975C85.1722 14.2421 85.7946 16.2932 85.7946 18.3913H84.4081C84.4081 16.5673 83.8672 14.7843 82.8539 13.2677C81.8405 11.7512 80.4003 10.5691 78.7151 9.8711C77.03 9.17309 75.1756 8.99049 73.3867 9.34633C71.5978 9.70218 69.9546 10.5805 68.6648 11.8703C67.3751 13.16 66.4967 14.8032 66.1409 16.5921C65.7851 18.3811 65.9677 20.2354 66.6657 21.9206C67.3637 23.6057 68.5457 25.046 70.0623 26.0593C71.5789 27.0727 73.3619 27.6136 75.1859 27.6136V29C73.0877 29 71.0366 28.3777 69.292 27.212C67.5475 26.0463 66.1878 24.3895 65.3849 22.4511C64.582 20.5127 64.3719 18.3796 64.7812 16.3217C65.1905 14.2638 66.2009 12.3736 67.6845 10.8899C69.1681 9.40629 71.0584 8.39596 73.1163 7.98663Z" fill="white"/>
<path d="M74.78 12.9865C75.8846 12.9035 76.9882 13.161 77.942 13.7242C78.8958 14.2875 79.6542 15.1297 80.1149 16.1371C80.5757 17.1444 80.7167 18.2688 80.5191 19.3587C80.3213 20.4486 79.7943 21.4519 79.009 22.2333C78.2238 23.0146 77.218 23.5368 76.1271 23.7292C75.0362 23.9215 73.9125 23.7748 72.9074 23.3092C71.9023 22.8435 71.064 22.0811 70.5054 21.1245C69.9468 20.1679 69.6946 19.0631 69.783 17.9589L70.905 18.0487C70.835 18.9236 71.0347 19.7989 71.4773 20.5569C71.9199 21.3149 72.5842 21.919 73.3806 22.288C74.1769 22.657 75.0672 22.7731 75.9316 22.6208C76.796 22.4683 77.593 22.0546 78.2151 21.4355C78.8373 20.8164 79.2549 20.0214 79.4115 19.1578C79.5682 18.2942 79.4565 17.4033 79.0914 16.6051C78.7264 15.8069 78.1255 15.1397 77.3697 14.6934C76.6139 14.2471 75.7394 14.0431 74.8642 14.1088L74.78 12.9865Z" fill="white"/>
<path fill-rule="evenodd" clip-rule="evenodd" d="M75.3664 11.3984C79.1463 11.4942 82.1809 14.5884 82.181 18.3913L82.1788 18.5718C82.0831 22.3517 78.9889 25.3864 75.1859 25.3864L75.0053 25.3842C71.2854 25.2899 68.2872 22.2917 68.193 18.5718L68.1907 18.3913C68.1907 14.528 71.3226 11.3961 75.1859 11.3961L75.3664 11.3984ZM75.1859 12.506C71.9356 12.506 69.3006 15.141 69.3005 18.3913C69.3006 21.6417 71.9356 24.2765 75.1859 24.2765C78.4362 24.2765 81.0711 21.6417 81.0711 18.3913C81.0711 15.141 78.4362 12.506 75.1859 12.506Z" fill="white"/>
<path fill-rule="evenodd" clip-rule="evenodd" d="M75.299 9.63644C80.0824 9.69702 83.9413 13.5936 83.9413 18.3913L83.9408 18.5044C83.8802 23.2878 79.9837 27.1467 75.1859 27.1468L75.0726 27.1462C70.3269 27.0861 66.4911 23.2502 66.431 18.5044L66.4303 18.3913C66.4303 13.5558 70.3504 9.63575 75.1859 9.63572L75.299 9.63644ZM75.1859 10.7456C70.9633 10.7456 67.5402 14.1688 67.5402 18.3913C67.5402 22.6139 70.9633 26.0369 75.1859 26.0369C79.4085 26.0369 82.8314 22.6139 82.8315 18.3913C82.8314 14.1688 79.4085 10.7456 75.1859 10.7456Z" fill="white"/>
<path d="M49.3833 8.40073C50.8272 7.8852 52.3685 7.68751 53.9013 7.82546C55.678 7.98537 57.3857 8.59074 58.8665 9.58557C60.3472 10.5804 61.5532 11.9326 62.3728 13.5171C63.1925 15.1016 63.5994 16.8671 63.5558 18.6505C63.5122 20.4338 63.0196 22.1775 62.1236 23.72C61.2275 25.2625 59.9569 26.5542 58.4294 27.4755C56.9018 28.3969 55.1665 28.9181 53.3841 28.9911C52.0199 29.0469 50.6618 28.8383 49.3833 28.3818V26.7922C50.6252 27.3196 51.9708 27.5661 53.3235 27.5107C54.857 27.448 56.3499 26.9996 57.6642 26.2069C58.9784 25.4143 60.0716 24.303 60.8425 22.9759C61.6134 21.6488 62.0371 20.1486 62.0746 18.6143C62.1121 17.08 61.7621 15.561 61.0569 14.1978C60.3517 12.8346 59.3142 11.6713 58.0403 10.8154C56.7663 9.95947 55.2971 9.43868 53.7685 9.3011C52.2718 9.1664 50.7656 9.40354 49.3833 9.99047V8.40073Z" fill="white"/>
<path d="M52.7802 9.63741C54.3477 9.60694 55.8946 9.998 57.2594 10.7696C58.6242 11.5412 59.7568 12.6651 60.5388 14.0239C61.3209 15.3827 61.7237 16.9266 61.7053 18.4943C61.6868 20.062 61.2478 21.596 60.434 22.9361C59.6202 24.2761 58.4615 25.3731 57.079 26.1124C55.6964 26.8517 54.1407 27.2062 52.5743 27.1389C51.4687 27.0913 50.3864 26.8345 49.3833 26.387V24.8363C50.3793 25.3876 51.4919 25.702 52.634 25.7511C53.9519 25.8077 55.2608 25.5094 56.424 24.8875C57.5872 24.2655 58.5621 23.3425 59.2468 22.215C59.9314 21.0876 60.3009 19.7969 60.3164 18.4779C60.3319 17.159 59.993 15.86 59.335 14.7168C58.677 13.5735 57.7241 12.6279 56.5758 11.9787C55.4275 11.3295 54.126 11.0006 52.8071 11.0262C51.6062 11.0495 50.4311 11.3661 49.3833 11.946V10.3953C50.4498 9.91948 51.6046 9.66027 52.7802 9.63741Z" fill="white"/>
<path d="M51.7793 11.4949C53.1263 11.2661 54.5109 11.4369 55.762 11.9861C57.0131 12.5353 58.076 13.4389 58.8194 14.5852C59.5629 15.7316 59.9543 17.0707 59.9454 18.437C59.9364 19.8033 59.5276 21.1371 58.7693 22.2737C58.011 23.4102 56.9364 24.2999 55.6782 24.8327C54.4201 25.3655 53.0334 25.5183 51.6894 25.272C50.8715 25.1221 50.0914 24.8281 49.3833 24.4083V22.8356C50.1185 23.4257 50.9907 23.8261 51.923 23.997C53.018 24.1976 54.1477 24.0732 55.1727 23.6391C56.1977 23.205 57.0732 22.4802 57.6911 21.5543C58.3088 20.6283 58.6419 19.5416 58.6491 18.4285C58.6564 17.3154 58.3375 16.2245 57.7319 15.2905C57.1262 14.3566 56.2602 13.6204 55.2409 13.173C54.2217 12.7256 53.0937 12.5865 51.9962 12.7728C51.0373 12.9357 50.1383 13.3408 49.3833 13.9467V12.3742C50.1177 11.9388 50.9292 11.6392 51.7793 11.4949Z" fill="white"/>
<path d="M55.7598 13.7562C56.4357 14.166 57.014 14.7185 57.4538 15.3753C57.8936 16.032 58.1845 16.7771 58.306 17.5581C58.4275 18.3392 58.3767 19.1374 58.1572 19.8968C57.9377 20.6561 57.5547 21.3583 57.0352 21.954C56.5156 22.5497 55.872 23.0245 55.1496 23.3452C54.4271 23.6659 53.6432 23.8248 52.8529 23.8106C52.0626 23.7963 51.2849 23.6095 50.5744 23.263C50.1429 23.0525 49.7427 22.7862 49.3833 22.472V21.2833L49.7169 21.0128C50.0992 21.4844 50.58 21.8667 51.1256 22.1328C51.6713 22.3989 52.2686 22.5424 52.8755 22.5533C53.4825 22.5643 54.0845 22.4423 54.6393 22.1959C55.1942 21.9496 55.6885 21.585 56.0875 21.1275C56.4865 20.67 56.7806 20.1307 56.9492 19.5475C57.1178 18.9643 57.1568 18.3513 57.0635 17.7515C56.9702 17.1517 56.7468 16.5795 56.409 16.0751C56.0712 15.5707 55.6272 15.1463 55.108 14.8316L55.7598 13.7562Z" fill="white"/>
<path d="M48.0861 0H49.3833V28.9999H48.0861V0Z" fill="white"/>
<path d="M46.4184 0H47.7155V28.9999H46.4184V0Z" fill="white"/>
<path d="M44.7507 0H46.0478V28.9999H44.7507V0Z" fill="white"/>
<path d="M43.083 1.06773e-06H44.3801V28.9999H43.083V1.06773e-06Z" fill="white"/>
<path d="M29.1076 7.98663C31.1655 7.57729 33.2986 7.7874 35.237 8.59034C37.1755 9.39327 38.8322 10.753 39.9979 12.4975C41.1636 14.2421 41.7859 16.2932 41.7859 18.3913H40.3995C40.3995 16.5673 39.8586 14.7843 38.8452 13.2677C37.8319 11.7512 36.3916 10.5691 34.7065 9.8711C33.0213 9.17309 31.167 8.99049 29.378 9.34633C27.5891 9.70218 25.9459 10.5805 24.6562 11.8703C23.3664 13.16 22.4881 14.8032 22.1322 16.5921C21.7764 18.3811 21.959 20.2354 22.657 21.9206C23.355 23.6057 24.5371 25.046 26.0537 26.0593C27.5702 27.0727 29.3533 27.6136 31.1773 27.6136V29C29.0791 29 27.028 28.3777 25.2834 27.212C23.5389 26.0463 22.1792 24.3895 21.3763 22.4511C20.5733 20.5127 20.3632 18.3796 20.7725 16.3217C21.1819 14.2638 22.1922 12.3736 23.6758 10.8899C25.1595 9.40629 27.0498 8.39596 29.1076 7.98663Z" fill="white"/>
<path d="M30.7713 12.9865C31.876 12.9035 32.9795 13.161 33.9333 13.7242C34.8872 14.2875 35.6456 15.1297 36.1063 16.1371C36.567 17.1444 36.7081 18.2688 36.5104 19.3587C36.3127 20.4486 35.7856 21.4519 35.0004 22.2333C34.2152 23.0146 33.2093 23.5368 32.1184 23.7292C31.0275 23.9215 29.9039 23.7748 28.8988 23.3092C27.8937 22.8435 27.0554 22.0811 26.4968 21.1245C25.9382 20.1679 25.686 19.0631 25.7744 17.9589L26.8964 18.0487C26.8263 18.9236 27.026 19.7989 27.4686 20.5569C27.9112 21.3149 28.5755 21.919 29.3719 22.288C30.1683 22.657 31.0586 22.7731 31.923 22.6208C32.7873 22.4683 33.5843 22.0546 34.2065 21.4355C34.8286 20.8164 35.2462 20.0214 35.4029 19.1578C35.5595 18.2942 35.4478 17.4033 35.0828 16.6051C34.7177 15.8069 34.1168 15.1397 33.3611 14.6934C32.6053 14.2471 31.7308 14.0431 30.8555 14.1088L30.7713 12.9865Z" fill="white"/>
<path fill-rule="evenodd" clip-rule="evenodd" d="M31.3577 11.3984C35.1376 11.4942 38.1723 14.5884 38.1723 18.3913L38.1702 18.5718C38.0744 22.3517 34.9802 25.3864 31.1773 25.3864L30.9966 25.3842C27.2767 25.2899 24.2786 22.2917 24.1844 18.5718L24.182 18.3913C24.182 14.528 27.314 11.3961 31.1773 11.3961L31.3577 11.3984ZM31.1773 12.506C27.9269 12.506 25.2919 15.141 25.2919 18.3913C25.2919 21.6417 27.9269 24.2765 31.1773 24.2765C34.4276 24.2765 37.0624 21.6417 37.0624 18.3913C37.0624 15.141 34.4276 12.506 31.1773 12.506Z" fill="white"/>
<path fill-rule="evenodd" clip-rule="evenodd" d="M31.2903 9.63644C36.0738 9.69702 39.9327 13.5936 39.9327 18.3913L39.9321 18.5044C39.8716 23.2878 35.975 27.1467 31.1773 27.1468L31.064 27.1462C26.3183 27.0861 22.4825 23.2502 22.4224 18.5044L22.4216 18.3913C22.4217 13.5558 26.3417 9.63575 31.1773 9.63572L31.2903 9.63644ZM31.1773 10.7456C26.9547 10.7456 23.5315 14.1688 23.5315 18.3913C23.5315 22.6139 26.9547 26.0369 31.1773 26.0369C35.3998 26.0369 38.8228 22.6139 38.8228 18.3913C38.8228 14.1688 35.3998 10.7456 31.1773 10.7456Z" fill="white"/>
<path d="M13.6198 14.1757H11.7667L22.329 28.9999H24.3674L13.6198 14.1757Z" fill="white"/>
<path d="M22.5143 1.71296e-06H20.6613L9.63576 14.1757L20.2907 28.9999H22.0511L11.1182 14.1757L22.5143 1.71296e-06Z" fill="white"/>
<path d="M18.7156 1.71296e-06L7.31947 14.1757L18.0671 28.9999H20.0127L8.70924 14.1757L20.1054 1.71296e-06H18.7156Z" fill="white"/>
<path d="M17.8817 1.71296e-06H16.1214L5.65174 13.0639V15.1022L15.6581 28.9999H17.6964L6.67091 14.1757V13.8977L17.8817 1.71296e-06Z" fill="white"/>
<path d="M5.00318 1.71296e-06H6.30031V28.9999H5.00318V1.71296e-06Z" fill="white"/>
<path d="M3.33546 1.71296e-06H4.63258V28.9999H3.33546V1.71296e-06Z" fill="white"/>
<path d="M1.66773 1.71296e-06H2.96485V28.9999H1.66773V1.71296e-06Z" fill="white"/>
<path d="M0 2.78069e-06H1.29712V28.9999H0V2.78069e-06Z" fill="white"/>
</svg>
