<svg width="163" height="44" viewBox="0 0 163 44" fill="none" xmlns="http://www.w3.org/2000/svg">
<path d="M146.12 13.5886C148.86 13.0436 151.7 13.3234 154.281 14.3924C156.861 15.4615 159.067 17.2718 160.619 19.5945C162.171 21.9173 163 24.6481 163 27.4417H161.154C161.154 25.0132 160.434 22.6393 159.085 20.62C157.735 18.6008 155.818 17.027 153.574 16.0977C151.331 15.1683 148.862 14.9252 146.48 15.399C144.098 15.8728 141.91 17.0422 140.193 18.7594C138.476 20.4766 137.306 22.6644 136.833 25.0462C136.359 27.428 136.602 29.897 137.531 32.1406C138.461 34.3842 140.034 36.3018 142.054 37.651C144.073 39.0002 146.447 39.7204 148.875 39.7204V41.5663C146.082 41.5663 143.351 40.7377 141.028 39.1857C138.705 37.6337 136.895 35.4278 135.826 32.847C134.757 30.2661 134.477 27.426 135.022 24.6861C135.567 21.9463 136.912 19.4295 138.888 17.4542C140.863 15.4788 143.38 14.1336 146.12 13.5886Z" fill="white"/>
<path d="M148.335 20.2456C149.806 20.1351 151.275 20.4779 152.545 21.2278C153.815 21.9778 154.825 23.0991 155.438 24.4403C156.051 25.7816 156.239 27.2785 155.976 28.7297C155.713 30.1808 155.011 31.5166 153.966 32.5569C152.92 33.5973 151.581 34.2925 150.128 34.5486C148.676 34.8047 147.18 34.6094 145.842 33.9894C144.504 33.3694 143.387 32.3543 142.644 31.0807C141.9 29.807 141.564 28.3361 141.682 26.8659L143.176 26.9855C143.082 28.1503 143.348 29.3158 143.938 30.325C144.527 31.3341 145.411 32.1385 146.472 32.6298C147.532 33.1211 148.717 33.2757 149.868 33.0728C151.019 32.8699 152.08 32.3191 152.909 31.4948C153.737 30.6705 154.293 29.6121 154.501 28.4622C154.71 27.3124 154.561 26.1262 154.075 25.0635C153.589 24.0008 152.789 23.1124 151.783 22.5182C150.777 21.9239 149.612 21.6523 148.447 21.7399L148.335 20.2456Z" fill="white"/>
<path fill-rule="evenodd" clip-rule="evenodd" d="M149.116 18.1312C154.148 18.2587 158.189 22.3784 158.189 27.4417L158.186 27.682C158.058 32.7146 153.939 36.755 148.875 36.7551L148.635 36.7522C143.682 36.6267 139.69 32.6347 139.565 27.682L139.562 27.4417C139.562 22.298 143.732 18.1281 148.875 18.1281L149.116 18.1312ZM148.875 19.6058C144.548 19.6058 141.039 23.1141 141.039 27.4417C141.039 31.7693 144.548 35.2773 148.875 35.2774C153.203 35.2773 156.711 31.7693 156.711 27.4417C156.711 23.1141 153.203 19.6058 148.875 19.6058Z" fill="white"/>
<path fill-rule="evenodd" clip-rule="evenodd" d="M149.026 15.7852C155.395 15.8659 160.533 21.0538 160.533 27.4417L160.532 27.5923C160.451 33.961 155.263 39.0988 148.875 39.0989L148.725 39.0982C142.406 39.0181 137.299 33.9108 137.219 27.5923L137.218 27.4417C137.218 21.0036 142.437 15.7843 148.875 15.7843L149.026 15.7852ZM148.875 17.262C143.253 17.262 138.696 21.8197 138.696 27.4417C138.696 33.0637 143.253 37.6211 148.875 37.6212C154.497 37.6211 159.055 33.0637 159.055 27.4417C159.055 21.8197 154.497 17.262 148.875 17.262Z" fill="white"/>
<path d="M114.521 14.14C116.444 13.4536 118.496 13.1904 120.537 13.3741C122.902 13.587 125.176 14.393 127.147 15.7175C129.119 17.0421 130.725 18.8425 131.816 20.952C132.907 23.0616 133.449 25.4123 133.391 27.7867C133.333 30.1611 132.677 32.4826 131.484 34.5364C130.291 36.5901 128.599 38.3099 126.565 39.5366C124.532 40.7633 122.221 41.4573 119.848 41.5544C118.032 41.6288 116.224 41.351 114.521 40.7432V38.6268C116.175 39.329 117.966 39.6572 119.767 39.5835C121.809 39.4999 123.797 38.9029 125.547 37.8475C127.296 36.7922 128.752 35.3126 129.778 33.5457C130.805 31.7787 131.369 29.7814 131.419 27.7386C131.469 25.6958 131.003 23.6733 130.064 21.8583C129.125 20.0434 127.743 18.4945 126.047 17.3549C124.351 16.2153 122.395 15.5219 120.36 15.3388C118.367 15.1594 116.362 15.4751 114.521 16.2566V14.14Z" fill="white"/>
<path d="M119.044 15.7865C121.131 15.746 123.19 16.2666 125.008 17.2939C126.825 18.3213 128.333 19.8176 129.374 21.6268C130.415 23.4359 130.952 25.4916 130.927 27.5788C130.902 29.6661 130.318 31.7085 129.234 33.4927C128.151 35.2768 126.608 36.7374 124.767 37.7217C122.927 38.7059 120.855 39.178 118.77 39.0884C117.298 39.0251 115.857 38.6832 114.521 38.0873V36.0227C115.847 36.7567 117.329 37.1753 118.849 37.2406C120.604 37.316 122.347 36.9189 123.895 36.0908C125.444 35.2626 126.742 34.0338 127.654 32.5327C128.565 31.0315 129.057 29.3131 129.078 27.557C129.098 25.8009 128.647 24.0714 127.771 22.5493C126.895 21.0272 125.626 19.7681 124.097 18.9037C122.569 18.0394 120.836 17.6014 119.08 17.6356C117.481 17.6667 115.916 18.0882 114.521 18.8603V16.7956C115.941 16.1621 117.479 15.817 119.044 15.7865Z" fill="white"/>
<path d="M117.711 18.2596C119.505 17.9551 121.348 18.1824 123.014 18.9136C124.68 19.6448 126.095 20.8479 127.085 22.3742C128.074 23.9005 128.596 25.6833 128.584 27.5024C128.572 29.3216 128.028 31.0974 127.018 32.6107C126.008 34.124 124.578 35.3085 122.902 36.0179C121.227 36.7273 119.381 36.9307 117.592 36.6028C116.503 36.4032 115.464 36.0117 114.521 35.4528V33.3588C115.5 34.1445 116.661 34.6776 117.903 34.9051C119.36 35.1723 120.865 35.0066 122.229 34.4287C123.594 33.8507 124.76 32.8857 125.582 31.6529C126.405 30.42 126.848 28.9732 126.858 27.4912C126.868 26.0092 126.443 24.5567 125.637 23.3132C124.83 22.0697 123.677 21.0896 122.32 20.4939C120.963 19.8982 119.461 19.713 118 19.9611C116.723 20.1779 115.526 20.7173 114.521 21.524V19.4303C115.499 18.8507 116.58 18.4518 117.711 18.2596Z" fill="white"/>
<path d="M123.011 21.2704C123.911 21.8159 124.681 22.5516 125.266 23.4261C125.852 24.3005 126.239 25.2925 126.401 26.3323C126.563 27.3722 126.495 28.435 126.203 29.4461C125.911 30.4571 125.401 31.392 124.709 32.1851C124.017 32.9782 123.16 33.6104 122.199 34.0374C121.237 34.4644 120.193 34.6759 119.141 34.657C118.088 34.638 117.053 34.3892 116.107 33.9279C115.533 33.6477 115 33.2931 114.521 32.8748V31.2921L114.965 30.932C115.474 31.5598 116.115 32.0689 116.841 32.4232C117.567 32.7775 118.363 32.9685 119.171 32.9831C119.979 32.9976 120.781 32.8352 121.519 32.5072C122.258 32.1793 122.916 31.6938 123.447 31.0846C123.979 30.4755 124.37 29.7575 124.595 28.9811C124.819 28.2046 124.871 27.3884 124.747 26.5898C124.623 25.7912 124.325 25.0293 123.875 24.3578C123.426 23.6862 122.834 23.1211 122.143 22.7022L123.011 21.2704Z" fill="white"/>
<path d="M112.794 2.95508H114.521V41.5662H112.794V2.95508Z" fill="white"/>
<path d="M110.574 2.95508H112.301V41.5662H110.574V2.95508Z" fill="white"/>
<path d="M108.353 2.95508H110.08V41.5662H108.353V2.95508Z" fill="white"/>
<path d="M106.133 2.95508H107.86V41.5662H106.133V2.95508Z" fill="white"/>
<path d="M87.5257 13.5886C90.2656 13.0436 93.1057 13.3234 95.6866 14.3924C98.2674 15.4615 100.473 17.2718 102.025 19.5945C103.577 21.9173 104.406 24.6481 104.406 27.4417H102.56C102.56 25.0132 101.84 22.6393 100.491 20.62C99.1414 18.6008 97.2238 17.027 94.9802 16.0977C92.7366 15.1683 90.2676 14.9252 87.8858 15.399C85.504 15.8728 83.3162 17.0422 81.599 18.7594C79.8818 20.4766 78.7124 22.6644 78.2386 25.0462C77.7648 27.428 78.0079 29.897 78.9373 32.1406C79.8666 34.3842 81.4404 36.3018 83.4596 37.651C85.4789 39.0002 87.8528 39.7204 90.2813 39.7204V41.5663C87.4877 41.5663 84.7569 40.7377 82.4341 39.1857C80.1114 37.6337 78.3011 35.4278 77.232 32.847C76.163 30.2661 75.8832 27.426 76.4282 24.6861C76.9732 21.9463 78.3184 19.4295 80.2938 17.4542C82.2691 15.4788 84.7859 14.1336 87.5257 13.5886Z" fill="white"/>
<path d="M89.7409 20.2456C91.2116 20.1351 92.6809 20.4779 93.9508 21.2278C95.2208 21.9778 96.2305 23.0991 96.8439 24.4403C97.4573 25.7816 97.6452 27.2785 97.382 28.7297C97.1187 30.1808 96.417 31.5166 95.3715 32.5569C94.326 33.5973 92.9869 34.2925 91.5344 34.5486C90.0819 34.8047 88.5859 34.6094 87.2477 33.9894C85.9095 33.3694 84.7933 32.3543 84.0496 31.0807C83.3059 29.807 82.9701 28.3361 83.0878 26.8659L84.5816 26.9855C84.4884 28.1503 84.7543 29.3158 85.3436 30.325C85.9329 31.3341 86.8173 32.1385 87.8776 32.6298C88.9379 33.1211 90.1233 33.2757 91.2741 33.0728C92.425 32.8699 93.4861 32.3191 94.3145 31.4948C95.1428 30.6705 95.6988 29.6121 95.9074 28.4622C96.1159 27.3124 95.9672 26.1262 95.4812 25.0635C94.9951 24.0008 94.1951 23.1124 93.1889 22.5182C92.1826 21.9239 91.0183 21.6523 89.853 21.7399L89.7409 20.2456Z" fill="white"/>
<path fill-rule="evenodd" clip-rule="evenodd" d="M90.5216 18.1312C95.5542 18.2587 99.5946 22.3784 99.5947 27.4417L99.5918 27.682C99.4643 32.7146 95.3446 36.755 90.2813 36.7551L90.0408 36.7522C85.0881 36.6267 81.0963 32.6347 80.9708 27.682L80.9677 27.4417C80.9677 22.298 85.1376 18.1281 90.2813 18.1281L90.5216 18.1312ZM90.2813 19.6058C85.9537 19.6058 82.4454 23.1141 82.4454 27.4417C82.4454 31.7693 85.9537 35.2773 90.2813 35.2774C94.6089 35.2773 98.1169 31.7693 98.117 27.4417C98.1169 23.1141 94.6089 19.6058 90.2813 19.6058Z" fill="white"/>
<path fill-rule="evenodd" clip-rule="evenodd" d="M90.4319 15.7852C96.8006 15.8659 101.938 21.0538 101.938 27.4417L101.938 27.5923C101.857 33.961 96.6692 39.0988 90.2813 39.0989L90.1305 39.0982C83.812 39.0181 78.7049 33.9108 78.6248 27.5923L78.6239 27.4417C78.6239 21.0036 83.8432 15.7843 90.2813 15.7843L90.4319 15.7852ZM90.2813 17.262C84.6593 17.262 80.1016 21.8197 80.1016 27.4417C80.1016 33.0637 84.6593 37.6211 90.2813 37.6212C95.9033 37.6211 100.461 33.0637 100.461 27.4417C100.461 21.8197 95.9033 17.262 90.2813 17.262Z" fill="white"/>
<path d="M66.9049 21.8289H64.4377L78.5006 41.5662H81.2145L66.9049 21.8289Z" fill="white"/>
<path d="M78.7473 2.95508H76.2801L61.6005 21.8289L75.7867 41.5662H78.1305L63.5742 21.8289L78.7473 2.95508Z" fill="white"/>
<path d="M73.6896 2.95508L58.5165 21.8289L72.8261 41.5662H75.4166L60.3669 21.8289L75.54 2.95508H73.6896Z" fill="white"/>
<path d="M72.5794 2.95508H70.2356L56.2961 20.3486V23.0625L69.6188 41.5662H72.3327L57.653 21.8289V21.4588L72.5794 2.95508Z" fill="white"/>
<path d="M55.4326 2.95508H57.1596V41.5662H55.4326V2.95508Z" fill="white"/>
<path d="M53.2121 2.95508H54.9392V41.5662H53.2121V2.95508Z" fill="white"/>
<path d="M50.9917 2.95508H52.7187V41.5662H50.9917V2.95508Z" fill="white"/>
<path d="M48.7712 2.95508H50.4983V41.5662H48.7712V2.95508Z" fill="white"/>
<rect x="22.4092" y="27.75" width="15.7636" height="15.7636" rx="7.88182" fill="#009A74"/>
<rect x="4.48193" y="27.75" width="15.7636" height="15.7636" rx="3" fill="#009A74"/>
<rect x="22.4092" y="0.966797" width="20.2455" height="20.2455" rx="4" fill="#009A74"/>
<rect y="0.966797" width="20.2455" height="20.2455" rx="10.1227" fill="#009A74"/>
</svg>
