<svg width="55" height="55" viewBox="0 0 55 55" fill="none" xmlns="http://www.w3.org/2000/svg">
<rect width="55" height="55" rx="8" fill="#ECF9FF"/>
<path d="M38 25V31C38 33.5 37.5 35.25 36.38 36.38L30 30L37.73 22.27C37.91 23.06 38 23.96 38 25Z" stroke="#39A5FF" stroke-width="1.5" stroke-linecap="round" stroke-linejoin="round"/>
<path d="M37.73 22.27L22.27 37.73C19.26 37.04 18 34.96 18 31V25C18 20 20 18 25 18H31C34.96 18 37.04 19.26 37.73 22.27Z" stroke="#39A5FF" stroke-width="1.5" stroke-linecap="round" stroke-linejoin="round"/>
<path d="M36.38 36.38C35.25 37.5 33.5 38 31 38H25C23.96 38 23.06 37.91 22.27 37.73L30 30L36.38 36.38Z" stroke="#39A5FF" stroke-width="1.5" stroke-linecap="round" stroke-linejoin="round"/>
<path d="M22.2398 23.98C22.9198 21.05 27.3198 21.05 27.9998 23.98C28.3898 25.7 27.3098 27.16 26.3598 28.06C25.6698 28.72 24.5798 28.72 23.8798 28.06C22.9298 27.16 21.8398 25.7 22.2398 23.98Z" stroke="#39A5FF" stroke-width="1.5"/>
<path d="M25.0946 24.7H25.1036" stroke="#39A5FF" stroke-width="2" stroke-linecap="round" stroke-linejoin="round"/>
</svg>
