<svg width="55" height="55" viewBox="0 0 55 55" fill="none" xmlns="http://www.w3.org/2000/svg">
<rect width="55" height="55" rx="8" fill="#FFEFE8"/>
<path d="M33 37H23C19 37 18 36 18 32V24C18 20 19 19 23 19H33C37 19 38 20 38 24V32C38 36 37 37 33 37Z" stroke="#FC8640" stroke-width="1.5" stroke-linecap="round" stroke-linejoin="round"/>
<path d="M30 24H35" stroke="#FC8640" stroke-width="1.5" stroke-linecap="round" stroke-linejoin="round"/>
<path d="M31 28H35" stroke="#FC8640" stroke-width="1.5" stroke-linecap="round" stroke-linejoin="round"/>
<path d="M33 32H35" stroke="#FC8640" stroke-width="1.5" stroke-linecap="round" stroke-linejoin="round"/>
<path d="M24.4999 27.2899C25.4996 27.2899 26.3099 26.4796 26.3099 25.4799C26.3099 24.4803 25.4996 23.6699 24.4999 23.6699C23.5003 23.6699 22.6899 24.4803 22.6899 25.4799C22.6899 26.4796 23.5003 27.2899 24.4999 27.2899Z" stroke="#FC8640" stroke-width="1.5" stroke-linecap="round" stroke-linejoin="round"/>
<path d="M28 32.33C27.86 30.88 26.71 29.74 25.26 29.61C24.76 29.56 24.25 29.56 23.74 29.61C22.29 29.75 21.14 30.88 21 32.33" stroke="#FC8640" stroke-width="1.5" stroke-linecap="round" stroke-linejoin="round"/>
</svg>
