<svg width="55" height="55" viewBox="0 0 55 55" fill="none" xmlns="http://www.w3.org/2000/svg">
<rect width="55" height="55" rx="8" fill="#F2EFFF"/>
<path d="M34.0001 23.16C33.9401 23.15 33.8701 23.15 33.8101 23.16C32.4301 23.11 31.3301 21.98 31.3301 20.58C31.3301 19.15 32.4801 18 33.9101 18C35.3401 18 36.4901 19.16 36.4901 20.58C36.4801 21.98 35.3801 23.11 34.0001 23.16Z" stroke="#7D66F2" stroke-width="1.5" stroke-linecap="round" stroke-linejoin="round"/>
<path d="M32.9699 30.4402C34.3399 30.6702 35.8499 30.4302 36.9099 29.7202C38.3199 28.7802 38.3199 27.2402 36.9099 26.3002C35.8399 25.5902 34.3099 25.3502 32.9399 25.5902" stroke="#7D66F2" stroke-width="1.5" stroke-linecap="round" stroke-linejoin="round"/>
<path d="M21.97 23.16C22.03 23.15 22.1 23.15 22.16 23.16C23.54 23.11 24.64 21.98 24.64 20.58C24.64 19.15 23.49 18 22.06 18C20.63 18 19.48 19.16 19.48 20.58C19.49 21.98 20.59 23.11 21.97 23.16Z" stroke="#7D66F2" stroke-width="1.5" stroke-linecap="round" stroke-linejoin="round"/>
<path d="M22.9999 30.4402C21.6299 30.6702 20.1199 30.4302 19.0599 29.7202C17.6499 28.7802 17.6499 27.2402 19.0599 26.3002C20.1299 25.5902 21.6599 25.3502 23.0299 25.5902" stroke="#7D66F2" stroke-width="1.5" stroke-linecap="round" stroke-linejoin="round"/>
<path d="M28.0001 30.6302C27.9401 30.6202 27.8701 30.6202 27.8101 30.6302C26.4301 30.5802 25.3301 29.4502 25.3301 28.0502C25.3301 26.6202 26.4801 25.4702 27.9101 25.4702C29.3401 25.4702 30.4901 26.6302 30.4901 28.0502C30.4801 29.4502 29.3801 30.5902 28.0001 30.6302Z" stroke="#7D66F2" stroke-width="1.5" stroke-linecap="round" stroke-linejoin="round"/>
<path d="M25.0902 33.7804C23.6802 34.7204 23.6802 36.2603 25.0902 37.2003C26.6902 38.2703 29.3102 38.2703 30.9102 37.2003C32.3202 36.2603 32.3202 34.7204 30.9102 33.7804C29.3202 32.7204 26.6902 32.7204 25.0902 33.7804Z" stroke="#7D66F2" stroke-width="1.5" stroke-linecap="round" stroke-linejoin="round"/>
</svg>
